<?xml version="1.0" encoding="UTF-8"?>
<svg data-bbox="5 0.993 53.641 62" xmlns="http://www.w3.org/2000/svg" width="512" viewBox="0 0 64 64" height="512" data-type="shape">
    <g>
        <path d="M38.646 31.161c.135-.644.255-1.316.346-2.043.513-4.103-.684-7.909-2.062-10.757C38.976 13.241 39 7.246 39 6.993v-.867l-7.612-1.088-.506-4.045H30c-10.218 0-25 5.697-25 16 0 8.485 3.471 12.24 4.895 13.422-.299 1.752-.18 3.421.094 4.627C9.857 36.25 9 44.48 9 52.993c0 9.886 7.92 10 8 10h31c2.767 0 8-1.672 8-8l.005-1.045c.048-7.115.107-16.842-17.359-22.787zM7 16.993C7 7.995 20.741 3.323 29.119 3.01l.889 7.107 1.984-.248-.347-2.773 5.328.761c-.072 1.542-.342 4.909-1.336 8.145-.969-1.574-1.788-2.552-1.879-2.658l-1.519 1.301c.057.066 5.699 6.773 4.768 14.226-.84 6.718-3.87 10.124-9.008 10.124-4.181 0-8.488-3.109-9.247-3.683l-1.762-11.46c-.009-.061-.788-6.128 2.252-6.889 3.169-.791 4.797 2.347 4.863 2.478l1.789-.895c-.816-1.632-3.367-4.467-7.137-3.522-4.008 1.001-3.974 6.402-3.822 8.383-2.318 1.188-3.693 2.955-4.439 4.83C9.166 26.808 7 23.489 7 16.993zm30.855 25.398l-5.272-2.343c1.296-.596 2.532-1.52 3.58-2.925 1.043 1.933 1.501 3.928 1.692 5.268zM31 41.532v4.462h-2v-4.277l1.057-.604zm-4.556-.659L24 42.27v-1.959c.785.252 1.606.446 2.444.562zm-9.67-5.27l-4.91-1.403c-.256-1.587-.609-6.206 3.359-8.68zm2.297 25.39H17c-.245 0-6-.091-6-8 0-7.104.605-14.021.871-16.711l5.274 1.507 3.835 18.217c-1.327 1.686-1.767 3.772-1.909 4.987zm9.929 0h-7.915c.176-1.26.712-3.407 2.349-4.625 1.331-.99 3.205-1.194 5.566-.612zm25.005-7.058L54 54.993c0 5.795-5.389 5.996-6 6H31v-5.24l17.268-4.797-.535-1.928-2.051.57-2.712-10.847-1.939.484 2.725 10.899-13.766 3.824c-2.958-.829-5.405-.657-7.288.511l-3.453-16.403c.751.466 1.689.99 2.752 1.47v6.181l5-2.858v5.134h6V42.42l7 3.112v-1.539c0-.205-.033-4.776-2.661-8.826.299-.62.561-1.318.798-2.067C54.1 38.583 54.052 47.087 54.005 53.935z"/>
        <path d="M31.899 32.341a.318.318 0 0 1-.442.089l-1.003-.668a2.322 2.322 0 0 0-2.926.29l-2.235 2.234 1.414 1.414 2.236-2.235a.318.318 0 0 1 .401-.039l1.003.668a2.31 2.31 0 0 0 1.741.345 2.31 2.31 0 0 0 1.475-.988l1.269-1.902-1.664-1.109z"/>
        <path d="M50.422 30.601l-1.869-3.738-5.749 1.15.392 1.961 4.251-.85 2.131 4.262 7.918-4.525-.992-1.736z"/>
        <path d="M48.726 17.305l-3.621 7.241 1.79.894 2.379-4.758 2.664 2.664 6.703-5.584-1.282-1.537-5.297 4.416z"/>
        <path d="M48.438 9.845l2.884 2.884 4.592-10.33-1.828-.812-3.408 7.67-3.115-3.115-4.147 12.441-2.969-1.484-.894 1.789 5.031 2.515z"/>
        <path d="M20.447 23.099l-.894 1.789 2.987 1.493-1.372 2.057 1.664 1.11 2.628-3.943z"/>
        <path d="M29.806 23.649l3.878 1.292.632-1.896-2.122-.708.776-3.102-1.94-.484z"/>
        <path d="M28.168 17.548l1.664-1.109c-2.189-3.284-6.411-4.371-6.59-4.415l-.486 1.939c.036.009 3.658.954 5.412 3.585z"/>
        <path d="M31.707 13.286c-2.143-2.143-5.259-3.198-5.391-3.241l-.633 1.896c.028.01 2.797.946 4.609 2.759z"/>
    </g>
</svg>
