<?xml version="1.0" encoding="UTF-8"?>
<svg data-bbox="15.23 0.061 449.936 480.3" xmlns="http://www.w3.org/2000/svg" width="512" viewBox="0 0 480.361 480.361" height="512" data-type="shape">
    <g>
        <path d="M325.927 226.761l-23.466 17.6 23.466 17.6c6.143 4.608 2.844 14.4-4.806 14.4a7.958 7.958 0 0 1-4.793-1.6l-32-24c-4.268-3.202-4.259-9.605 0-12.801l32-24a8 8 0 0 1 9.599 12.801zm92.701-85.731a8 8 0 0 0-8 8v323.331a8 8 0 0 0 16 0V149.03a8 8 0 0 0-8-8zM222.296 16.361h65.663c19.836 0 38.762 4.585 56.253 13.628a8 8 0 1 0 7.347-14.213C332.054 5.691 310.062.361 287.959.361h-65.663C145.834.361 83.628 62.568 83.628 139.03v333.331a8 8 0 0 0 16 0V139.03c0-67.64 55.028-122.669 122.668-122.669zm240.488 72.576c3.954 3.954 2.727 10.657-2.375 12.953l-86 38.688c-7.4 3.331-14.51-5.289-9.809-11.922l27.268-38.474-26.397-26.397c-3.954-3.954-2.727-10.657 2.375-12.953l86-38.688c7.4-3.331 14.511 5.289 9.809 11.922L436.387 62.54zm-19.51 3.117l-22.975-22.975a8 8 0 0 1-.87-10.283l14.177-20.003-48.625 21.874 22.975 22.975a8 8 0 0 1 .87 10.283l-14.177 20.003zm-55.771 101.949c-1.638-.666-20.343-4.831-38.415-20.898-14.08-12.519-21.615-26.688-25.458-36.37-2.516-6.337-11.361-6.83-14.531-.745-12.372 23.745-31.613 43.816-56.662 57.21a62.743 62.743 0 0 0-8.066-31.17c-2.919-5.189-10.254-5.45-13.575-.596-17.811 26.034-43.786 43.396-75.326 44.105a8 8 0 0 0 .177 15.998c7.575 0 19.18-1.47 30.718-5.438-2.203 3.489-1.396 8.141 1.963 10.661l23.466 17.6-23.466 17.6c-6.143 4.608-2.84 14.403 4.806 14.4 1.67 0 3.354-.521 4.793-1.6l32-24c4.268-3.202 4.259-9.605 0-12.801-34.75-26.063-32.664-24.791-34.792-25.343 17.708-8.018 30.981-20.111 40.028-30.648a46.69 46.69 0 0 1-.252 22.668c-1.669 6.382 4.701 11.943 10.801 9.415 29.846-12.362 53.455-32.51 69.784-57.387 14.053 24.695 36.096 42.03 60.986 50.609v66.528c0 67.277-54.734 122.012-122.012 122.012-67.277 0-122.012-54.734-122.012-122.012v-30.369a8 8 0 0 0-16 0v30.369c0 55.357 32.766 103.199 79.918 125.17v18.647c0 12.504-4.847 24.25-13.648 33.076-15.587 15.629-35.244 13.665-32.902 13.665a8 8 0 0 0 0 16c34.579 0 62.551-28.039 62.551-62.741V405.24c89.751 28.809 180.105-39.36 180.105-130.641 0-.567.002-72.701-.004-73.266a7.989 7.989 0 0 0-4.975-7.33zm-28.498 270.358c-16.398.001-31.279-8.403-39.806-22.48a8 8 0 1 0-13.686 8.289c11.452 18.906 31.45 30.192 53.493 30.191a8 8 0 1 0-.001-16zM86.081 45.889L69.11 14.777c-2.571-4.714-8.935-5.571-12.68-1.826L42.717 26.664 30.19 4.116a8 8 0 0 0-13.986 7.77l17.678 31.819c2.58 4.646 8.896 5.525 12.65 1.772l13.653-13.653 11.851 21.727a8 8 0 1 0 14.045-7.662zM51.327 151.076L30.51 162.43c-4.69 2.558-5.596 8.911-1.827 12.68l6.694 6.695-12.019 6.677a8 8 0 1 0 7.77 13.986l21.29-11.827c4.646-2.58 5.524-8.899 1.772-12.649l-6.634-6.635 11.431-6.234a8 8 0 0 0-7.66-14.047zm211.198 158.958a8.001 8.001 0 0 0-9.795 0l-10.603 8.209-10.603-8.209a8.001 8.001 0 0 0-9.795 0l-15.5 12a8 8 0 0 0-1.428 11.224 8 8 0 0 0 11.223 1.429l10.603-8.209 10.603 8.209a8.001 8.001 0 0 0 9.795 0l10.603-8.209 10.603 8.209a8.001 8.001 0 0 0 9.795 0l10.603-8.209 10.603 8.209a8.002 8.002 0 0 0 9.795-12.653l-15.5-12a8.001 8.001 0 0 0-9.795 0l-10.603 8.209z"/>
    </g>
</svg>
