<?xml version="1.0" encoding="UTF-8"?>
<svg data-bbox="0 0 496 496" viewBox="0 0 496 496" xmlns="http://www.w3.org/2000/svg" data-type="shape">
    <g>
        <path d="M350.72 0H320v16h12.184l-35.616 89.024 14.864 5.952L347.896 19.8 476.2 148.104l-91.176 36.464 5.952 14.864L480 163.816V176h16v-30.72L350.72 0z"/>
        <path d="M496 192v112h-16V192h16z"/>
        <path d="M480 332.184l-89.024-35.616-5.952 14.864 91.176 36.464-123.68 123.68-37.168-86.728-14.704 6.304L338.728 480H328v16h22.72L496 350.72V320h-16v12.184z"/>
        <path d="M312 480v16H192v-16h120z"/>
        <path d="M16 192v120H0V192h16z"/>
        <path d="M16 163.816l89.024 35.616 5.952-14.864L19.8 148.104 148.104 19.8l36.464 91.176 14.864-5.952L163.816 16H176V0h-30.72L0 145.28V176h16v-12.184z"/>
        <path d="M304 0v16H192V0h112z"/>
        <path d="M112 248c0 74.992 61.008 136 136 136s136-61.008 136-136-61.008-136-136-136-136 61.008-136 136zm256 0c0 66.168-53.832 120-120 120s-120-53.832-120-120 53.832-120 120-120 120 53.832 120 120z"/>
        <path d="M199.432 390.976l-14.864-5.952-36.464 91.176-123.68-123.68 86.728-37.168-6.304-14.704L16 338.728V328H0v22.72L145.28 496H176v-16h-12.184l35.616-89.024z"/>
        <path d="M264 192v16h-16v-16h16z"/>
        <path d="M144 248c0 55.328 43.464 100.576 98.024 103.696V352c1.008 0 1.992-.096 2.984-.152 1.008.032 1.984.152 2.992.152 57.344 0 104-46.656 104-104 0-55.328-43.464-100.576-98.024-103.696V144c-1.008 0-1.992.096-2.992.152-1-.032-1.976-.152-2.984-.152-57.344 0-104 46.656-104 104zm100.024 87.792C197.352 333.696 160 295.184 160 248c0-34.152 19.6-63.76 48.104-78.336-5.104 8.24-8.104 17.92-8.104 28.312 0 18.848 10.04 36.576 26.2 46.28l35.36 21.216c11.376 6.824 18.44 19.296 18.44 32.552 0 20.256-15.984 36.712-35.976 37.768zm7.952-175.584C298.648 162.304 336 200.816 336 248c0 34.152-19.6 63.76-48.104 78.336 5.104-8.24 8.104-17.92 8.104-28.312 0-18.848-10.04-36.576-26.2-46.28l-35.36-21.216c-11.376-6.824-18.44-19.296-18.44-32.552 0-20.256 15.984-36.712 35.976-37.768z"/>
        <path d="M248 288v16h-16v-16h16z"/>
        <path d="M288 40v16h-80V40h80z"/>
        <path d="M288 72v16h-80V72h80z"/>
        <path d="M72.628 129.205l56.57-56.567 11.313 11.314-56.569 56.567-11.314-11.314z"/>
        <path d="M163.143 106.566l-56.57 56.567-11.313-11.314 56.57-56.567 11.313 11.314z"/>
        <path d="M56 208v80H40v-80h16z"/>
        <path d="M88 208v80H72v-80h16z"/>
        <path d="M72.627 366.8l11.314-11.313 56.567 56.569-11.314 11.314-56.567-56.57z"/>
        <path d="M163.172 389.418l-11.314 11.313-56.567-56.569 11.314-11.313 56.567 56.569z"/>
        <path d="M288 440v16h-80v-16h80z"/>
        <path d="M288 408v16h-80v-16h80z"/>
        <path d="M423.362 366.792l-56.569 56.567-11.313-11.314 56.569-56.567 11.313 11.314z"/>
        <path d="M332.85 389.423l56.569-56.567 11.313 11.314-56.569 56.567-11.313-11.314z"/>
        <path d="M456 208v80h-16v-80h16z"/>
        <path d="M424 208v80h-16v-80h16z"/>
        <path d="M423.358 129.183l-11.314 11.313-56.567-56.569 11.314-11.313 56.567 56.569z"/>
        <path d="M332.848 106.58l11.314-11.313 56.567 56.57-11.314 11.313-56.567-56.57z"/>
    </g>
</svg>
