<?xml version="1.0" encoding="UTF-8"?>
<svg data-bbox="1.2 1 61.8 62" xmlns="http://www.w3.org/2000/svg" width="512" viewBox="0 0 64 64" height="512" data-type="shape">
    <g>
        <path d="M36.193 22.393a2.124 2.124 0 0 1-2.395.39l-.703-.353c-1.538-.768-3.489-.45-4.703.764l-.1.1 1.414 1.414.1-.1a2.118 2.118 0 0 1 2.395-.39l.703.353c.563.281 1.192.43 1.821.43a4.051 4.051 0 0 0 2.882-1.193l.1-.1-1.414-1.414z"/>
        <path d="M27.555 15.168l-1.11 1.664L28.197 18l-1.752 1.168 1.11 1.664L31.803 18z"/>
        <path d="M37.803 18l1.752-1.168-1.11-1.664L34.197 18l4.248 2.832 1.11-1.664z"/>
        <path d="M63 25.453c0-1.752-.395-3.515-1.14-5.099L55.796 7.468a10.083 10.083 0 0 0-2.806-3.557A13.334 13.334 0 0 0 44.69 1h-5.006c-.723 0-1.377.29-1.86.757A15.934 15.934 0 0 0 33 1c-8.822 0-16 7.178-16 16v2.929c0 4.402.301 8.841.88 13.21A10.607 10.607 0 0 0 14 41.344V63h31v-8.145c0-.981.324-1.954.913-2.74A10.493 10.493 0 0 0 48 45.855c0-.138-.025-.273-.03-.411l11.522-11.522A11.9 11.9 0 0 0 63 25.453zm-44-5.524V17c0-7.72 6.28-14 14-14 1.37 0 2.713.207 4.009.594-.001.031-.009.06-.009.091 0 1.234.836 2.306 2.034 2.604l2.066.517a3.273 3.273 0 0 0 2.76 2.435l.853.107A13.891 13.891 0 0 1 47 17v2.929c0 3.614-.21 7.267-.609 10.871a8.3 8.3 0 0 1-2.926.114l-5.682-.812-.472-1.952A9.563 9.563 0 0 0 43 19.395v-5.479A4.921 4.921 0 0 0 38.085 9a4.91 4.91 0 0 0-2.529.7l-2.169 1.303a7.017 7.017 0 0 1-3.603.997H27c-2.206 0-4 1.794-4 4v3.395c0 1.902.558 3.744 1.613 5.328a9.574 9.574 0 0 0 4.07 3.424l-.49 1.958-5.074.725a10.684 10.684 0 0 0-3.374 1.078A99.046 99.046 0 0 1 19 19.929zm28.211-10.27l1.974.247 3.155 13.407a5.027 5.027 0 0 1-1.025 4.347l-.321.384a8.142 8.142 0 0 1-2.517 2.013A101 101 0 0 0 49 19.929V17c0-2.584-.619-5.083-1.789-7.341zM33.395 27h-.789a7.59 7.59 0 0 1-6.328-3.387A7.574 7.574 0 0 1 25 19.395V16c0-1.103.897-2 2-2h2.784a9.01 9.01 0 0 0 4.631-1.282l2.17-1.303a2.919 2.919 0 0 1 4.415 2.5v5.479a7.582 7.582 0 0 1-1.277 4.219A7.59 7.59 0 0 1 33.395 27zm-.79 2h.789c.688 0 1.361-.087 2.018-.228L36 31.123V37h-6v-5.877l.588-2.351a9.6 9.6 0 0 0 2.017.228zM30 39h6v1c0 1.654-1.346 3-3 3s-3-1.346-3-3zm-14 2.344a8.61 8.61 0 0 1 5.224-7.923c.253-.108.515-.19.776-.274v1.431a6.974 6.974 0 0 1-1.176 3.883l-1.072 1.608A10.386 10.386 0 0 0 18 45.855c0 2.243.741 4.466 2.087 6.26.589.786.913 1.759.913 2.74V61h-5zm28.313 9.572A6.611 6.611 0 0 0 43 54.855V61H23v-6.145a6.609 6.609 0 0 0-1.313-3.939A8.486 8.486 0 0 1 20 45.855c0-1.671.489-3.288 1.416-4.677l1.072-1.608A8.965 8.965 0 0 0 24 34.578v-1.853l4.026-.575L28 40c0 2.757 2.243 5 5 5s5-2.243 5-5v-7.847l4 .571v1.853c0 1.782.522 3.508 1.512 4.992l1.072 1.608A8.405 8.405 0 0 1 46 45.855a8.486 8.486 0 0 1-1.687 5.061zm3.278-7.921a10.37 10.37 0 0 0-1.343-2.926l-1.072-1.608A6.974 6.974 0 0 1 44 34.578v-1.627c.228.015.456.049.684.049 3.04 0 5.9-1.34 7.847-3.675l.321-.385a7.038 7.038 0 0 0 1.437-6.085L50.814 8.094l-6.706-.838A1.268 1.268 0 0 1 43 6v-.781l-3.481-.869A.685.685 0 0 1 39.685 3h5.006c2.553 0 5.057.878 7.05 2.474a8.062 8.062 0 0 1 2.246 2.846l6.064 12.887c.621 1.318.949 2.787.949 4.246a9.915 9.915 0 0 1-2.922 7.055z"/>
        <path d="M9.658 3.553l.895 1.789A2.985 2.985 0 0 0 13.236 7h1.527c.382 0 .725.212.895.553l.447.895 1.789-.895-.447-.895A2.985 2.985 0 0 0 14.764 5h-1.527a.994.994 0 0 1-.895-.553l-.895-1.789A2.985 2.985 0 0 0 8.764 1H7v2h1.764c.382 0 .724.212.894.553z"/>
        <path d="M9.155 15c.75 0 1.477-.22 2.103-.637l.933-.622a1.004 1.004 0 0 1 1.262.125l.841.841 1.414-1.414-.841-.841a3.008 3.008 0 0 0-3.785-.375l-.933.622c-.687.458-1.675.361-2.259-.224l-2.183-2.183-1.414 1.414 2.183 2.183A3.809 3.809 0 0 0 9.155 15z"/>
        <path d="M15.447 19.105l-1.507-.753A3.364 3.364 0 0 0 12.447 18c-1.274 0-2.42.708-2.989 1.848l-.705 1.411c-.321.643-1.155.923-1.8.6a3.013 3.013 0 0 0-3.763.889L1.2 25.4l1.6 1.2 1.99-2.653a1.02 1.02 0 0 1 1.27-.299c.461.23.978.352 1.493.352 1.274 0 2.42-.708 2.989-1.848l.705-1.411c.321-.642 1.156-.921 1.8-.6l1.506.753z"/>
    </g>
</svg>
