<?xml version="1.0" encoding="UTF-8"?>
<svg data-bbox="0 0 512 512" xmlns="http://www.w3.org/2000/svg" width="512pt" viewBox="0 0 512 512" height="512pt" data-type="color">
    <g>
        <path d="M352.398 512H159.602c-3.98 0-7.793-1.582-10.61-4.395L4.395 363.004A14.996 14.996 0 0 1 0 352.398V159.602c0-3.98 1.582-7.793 4.395-10.606L148.992 4.395A15.012 15.012 0 0 1 159.602 0h192.796c3.98 0 7.793 1.582 10.606 4.395l144.601 144.601A14.996 14.996 0 0 1 512 159.602v192.796c0 3.98-1.582 7.797-4.395 10.61L363.004 507.605A14.996 14.996 0 0 1 352.398 512zm-186.586-30h180.375L482 346.187V165.813L346.187 30H165.813L30 165.813v180.375zm0 0" fill="#00eccf" data-color="1"/>
        <path d="M304.2 78.2h-96.4c-8.284 0-15-6.716-15-15 0-8.282 6.716-15 15-15h96.4c8.284 0 15 6.718 15 15 0 8.284-6.716 15-15 15zm0 0" fill="#00eccf" data-color="1"/>
        <path d="M288.133 126.398h-64.266c-8.285 0-15-6.714-15-15 0-8.28 6.715-15 15-15h64.266c8.285 0 15 6.72 15 15 0 8.286-6.715 15-15 15zm0 0" fill="#00eccf" data-color="1"/>
        <path d="M304.2 463.8h-96.4c-8.284 0-15-6.718-15-15 0-8.284 6.716-15 15-15h96.4c8.284 0 15 6.716 15 15 0 8.282-6.716 15-15 15zm0 0" fill="#00eccf" data-color="1"/>
        <path d="M288.133 415.602h-64.266c-8.285 0-15-6.72-15-15 0-8.286 6.715-15 15-15h64.266c8.285 0 15 6.714 15 15 0 8.28-6.715 15-15 15zm0 0" fill="#00eccf" data-color="1"/>
        <path d="M143.145 437.016l-68.165-68.16c-5.855-5.86-5.855-15.356 0-21.215 5.86-5.856 15.36-5.856 21.215 0l68.164 68.164c5.856 5.855 5.856 15.355 0 21.21-5.863 5.86-15.359 5.856-21.214 0zm0 0" fill="#00eccf" data-color="1"/>
        <path d="M165.863 391.57l-45.445-45.441c-5.856-5.86-5.856-15.356 0-21.215 5.86-5.855 15.355-5.855 21.215 0l45.441 45.445c5.86 5.856 5.86 15.356 0 21.211-5.86 5.864-15.355 5.86-21.21 0zm0 0" fill="#00eccf" data-color="1"/>
        <path d="M63.2 319.2c-8.286 0-15-6.716-15-15v-96.4c0-8.284 6.714-15 15-15 8.284 0 15 6.716 15 15v96.4c0 8.284-6.716 15-15 15zm0 0" fill="#00eccf" data-color="1"/>
        <path d="M111.398 303.133c-8.28 0-15-6.715-15-15v-64.266c0-8.285 6.72-15 15-15 8.286 0 15 6.715 15 15v64.266c0 8.285-6.714 15-15 15zm0 0" fill="#00eccf" data-color="1"/>
        <path d="M74.98 164.36c-5.855-5.86-5.855-15.356 0-21.215l68.165-68.16c5.859-5.86 15.355-5.86 21.214 0 5.856 5.855 5.856 15.355 0 21.21L96.195 164.36c-5.86 5.86-15.355 5.856-21.215 0zm0 0" fill="#00eccf" data-color="1"/>
        <path d="M120.418 187.086c-5.86-5.86-5.86-15.356 0-21.215l45.445-45.441c5.856-5.86 15.356-5.86 21.211 0 5.86 5.855 5.86 15.351 0 21.21l-45.441 45.446c-5.86 5.86-15.36 5.855-21.215 0zm0 0" fill="#00eccf" data-color="1"/>
        <path fill="#edf6ff" d="M366.45 255.766c0 61.394-49.774 111.164-111.169 111.164s-111.164-49.77-111.164-111.164 49.77-111.164 111.164-111.164 111.168 49.77 111.168 111.164zm0 0" data-color="2"/>
        <path fill="#d5e9ff" d="M255.293 144.602V366.93c61.39-.004 111.156-49.774 111.156-111.164s-49.765-111.16-111.156-111.164zm0 0" data-color="3"/>
        <path fill="#00347b" d="M255.281 255.766c30.7 0 55.586-24.887 55.586-55.582 0-30.7-24.887-55.582-55.586-55.582 61.399 0 111.168 49.77 111.168 111.164S316.68 366.93 255.281 366.93c-30.695 0-55.582-24.883-55.582-55.582 0-30.696 24.887-55.582 55.582-55.582zm0 0" data-color="4"/>
        <path fill="#001737" d="M366.45 255.766c0 61.394-49.774 111.164-111.169 111.164V255.766c30.7 0 55.586-24.887 55.586-55.582 0-30.457-24.5-55.192-54.867-55.579 61.063.383 110.45 50 110.45 111.16zm0 0" data-color="5"/>
        <path fill="#00347b" d="M255.293 215.152c-8.254 0-14.969-6.714-14.969-14.968s6.715-14.97 14.969-14.97 14.969 6.716 14.969 14.97-6.715 14.968-14.969 14.968zm0 0" data-color="4"/>
        <path fill="#001737" d="M255.293 185.215v29.937c8.254 0 14.969-6.714 14.969-14.968s-6.715-14.97-14.969-14.97zm0 0" data-color="5"/>
        <path fill="#edf6ff" d="M255.293 326.316c-8.254 0-14.969-6.714-14.969-14.968s6.715-14.97 14.969-14.97 14.969 6.716 14.969 14.97-6.715 14.968-14.969 14.968zm0 0" data-color="2"/>
        <path fill="#d5e9ff" d="M255.293 296.383v29.933c8.254 0 14.969-6.714 14.969-14.968 0-8.25-6.715-14.965-14.969-14.965zm0 0" data-color="3"/>
        <path fill="#00cab1" d="M415.805 164.36L347.64 96.194c-5.86-5.855-5.86-15.355 0-21.21 5.855-5.86 15.355-5.86 21.21 0l68.165 68.16c5.859 5.859 5.859 15.355 0 21.214s-15.356 5.856-21.211 0zm0 0" data-color="6"/>
        <path fill="#00cab1" d="M380.965 191.48a14.94 14.94 0 0 1-10.606-4.394l-45.445-45.445c-5.855-5.856-5.855-15.356 0-21.211 5.86-5.86 15.356-5.86 21.215 0l45.441 45.441c5.86 5.86 5.86 15.356 0 21.215a14.941 14.941 0 0 1-10.605 4.394zm0 0" data-color="6"/>
        <path fill="#00cab1" d="M448.8 319.2c-8.284 0-15-6.716-15-15v-96.4c0-8.284 6.716-15 15-15 8.282 0 15 6.716 15 15v96.4c0 8.284-6.718 15-15 15zm0 0" data-color="6"/>
        <path fill="#00cab1" d="M400.598 303.133c-8.282 0-15-6.715-15-15v-64.266c0-8.285 6.718-15 15-15 8.285 0 15 6.715 15 15v64.266c0 8.285-6.715 15-15 15zm0 0" data-color="6"/>
        <path fill="#00cab1" d="M347.64 437.016c-5.859-5.856-5.859-15.356 0-21.211l68.165-68.164c5.855-5.856 15.355-5.856 21.21 0 5.86 5.859 5.86 15.355 0 21.214l-68.16 68.16c-5.859 5.86-15.359 5.86-21.214 0zm0 0" data-color="6"/>
        <path fill="#00cab1" d="M324.914 391.57c-5.86-5.855-5.86-15.351 0-21.21l45.445-45.446c5.856-5.855 15.356-5.855 21.211 0 5.86 5.86 5.86 15.356 0 21.215l-45.44 45.441c-5.86 5.864-15.36 5.86-21.215 0zm0 0" data-color="6"/>
        <path fill="#00cab1" d="M507.602 148.988L363.012 4.391A15.024 15.024 0 0 0 352.398 0h-97.097v30h90.89L482 165.809V346.19L346.191 482h-90.89v30h97.097a15.03 15.03 0 0 0 10.614-4.39l144.59-144.598A14.999 14.999 0 0 0 512 352.398V159.602c0-3.98-1.578-7.793-4.398-10.614zm0 0" data-color="6"/>
        <path fill="#00cab1" d="M319.2 63.2c0 8.288-6.72 15-15 15h-48.9v-30h48.9c8.28 0 15 6.722 15 15zm0 0" data-color="6"/>
        <path fill="#00cab1" d="M303.129 111.398c0 8.282-6.711 15-15 15H255.3v-30h32.828c8.289 0 15 6.723 15 15zm0 0" data-color="6"/>
        <path fill="#00cab1" d="M319.2 448.8c0 8.278-6.72 15-15 15h-48.9v-30h48.9c8.28 0 15 6.712 15 15zm0 0" data-color="6"/>
        <path fill="#00cab1" d="M303.129 400.602c0 8.277-6.711 15-15 15H255.3v-30h32.828c8.289 0 15 6.718 15 15zm0 0" data-color="6"/>
    </g>
</svg>
