<?xml version="1.0" encoding="UTF-8"?>
<svg data-bbox="0 0 512.004 512.004" viewBox="0 0 512.003 512.003" xmlns="http://www.w3.org/2000/svg" data-type="tint">
    <g>
        <path d="M256.003 108.558c-81.424 0-147.44 66.016-147.44 147.44 0 81.436 66.016 147.44 147.44 147.44l1.903-.023c80.548-1.026 121.502-66.627 121.502-147.417 0-81.424-41.981-147.44-123.405-147.44z" fill="#4d4d4d"/>
        <path fill="#f2f2f2" d="M285.861 329.722c0 16.49-13.368 29.859-29.859 29.859-16.49 0-29.859-13.368-29.859-29.859 0-16.49 13.368-29.859 29.859-29.859 16.49 0 29.859 13.368 29.859 29.859z"/>
        <path d="M256.003 108.558c81.424 0 147.44 66.016 147.44 147.44 0 80.79-64.989 146.391-145.537 147.417 39.836-1.015 71.817-33.619 71.817-73.697 0-40.712-33.008-73.72-73.72-73.72s-73.72-33.008-73.72-73.72 33.008-73.72 73.72-73.72zm29.859 73.72c0-16.481-13.367-29.848-29.859-29.848s-29.859 13.367-29.859 29.848c0 16.492 13.367 29.859 29.859 29.859s29.859-13.366 29.859-29.859z" fill="#f2f2f2"/>
        <path fill="#4d4d4d" d="M293.519 62.567v17.3h-75.035v-17.3h75.035z"/>
        <path fill="#4d4d4d" d="M293.519 0v17.3h-75.035V0h75.035z"/>
        <path fill="#4d4d4d" d="M293.519 31.289v17.3h-75.035v-17.3h75.035z"/>
        <path fill="#4d4d4d" d="M293.519 494.704v17.3h-30.528v-17.3h30.528z"/>
        <path fill="#4d4d4d" d="M249.001 494.704v17.3h-30.517v-17.3h30.517z"/>
        <path fill="#4d4d4d" d="M293.519 432.136v17.3h-30.528v-17.3h30.528z"/>
        <path fill="#4d4d4d" d="M249.001 432.136v17.3h-30.517v-17.3h30.517z"/>
        <path fill="#4d4d4d" d="M293.519 463.414v17.3h-30.528v-17.3h30.528z"/>
        <path fill="#4d4d4d" d="M249.001 463.414v17.3h-30.517v-17.3h30.517z"/>
        <path fill="#4d4d4d" d="M48.452 101.514l22.15-22.15 12.233 12.234-22.15 22.149-12.233-12.233z"/>
        <path fill="#4d4d4d" d="M79.34 70.621l22.166-22.165L113.74 60.69 91.573 82.855 79.34 70.62z"/>
        <path fill="#4d4d4d" d="M92.697 145.75l53.058-53.056 12.233 12.233-53.058 53.056-12.233-12.233z"/>
        <path fill="#4d4d4d" d="M70.575 123.635l53.058-53.056 12.233 12.233-53.058 53.056-12.233-12.233z"/>
        <path fill="#4d4d4d" d="M354.016 407.07l21.586-21.586 12.233 12.234-21.587 21.585-12.232-12.233z"/>
        <path fill="#4d4d4d" d="M385.512 375.59l21.579-21.578 12.232 12.233-21.578 21.578-12.233-12.234z"/>
        <path fill="#4d4d4d" d="M398.269 451.31l53.058-53.056 12.233 12.234-53.058 53.056-12.233-12.233z"/>
        <path fill="#4d4d4d" d="M376.15 429.197l21.586-21.586 12.232 12.233-21.586 21.586-12.233-12.233z"/>
        <path fill="#4d4d4d" d="M407.615 397.724l21.578-21.578 12.233 12.234-21.578 21.577-12.233-12.233z"/>
        <path fill="#4d4d4d" d="M384.918 135.843l12.233-12.233 22.15 22.15-12.234 12.232-22.149-22.15z"/>
        <path fill="#4d4d4d" d="M354.022 104.922l12.234-12.233 22.165 22.166-12.233 12.233-22.166-22.166z"/>
        <path fill="#4d4d4d" d="M398.255 60.676l12.234-12.233 53.056 53.058-12.234 12.233-53.056-53.058z"/>
        <path fill="#4d4d4d" d="M376.14 82.797l12.234-12.233 53.056 53.058-12.234 12.233-53.056-53.058z"/>
        <path fill="#4d4d4d" d="M79.944 441.963l12.233-12.232 21.586 21.586-12.234 12.233-21.585-21.587z"/>
        <path fill="#4d4d4d" d="M48.457 410.485l12.234-12.233 21.577 21.579-12.233 12.232-21.578-21.578z"/>
        <path fill="#4d4d4d" d="M92.692 366.246l12.233-12.233 53.056 53.058-12.233 12.233-53.056-53.058z"/>
        <path fill="#4d4d4d" d="M102.048 419.833L114.28 407.6l21.585 21.587-12.233 12.232-21.585-21.586z"/>
        <path fill="#4d4d4d" d="M70.581 388.374l12.233-12.233 21.578 21.578-12.233 12.233-21.578-21.578z"/>
        <path fill="#4d4d4d" d="M79.867 218.484v75.035h-17.3v-75.035h17.3z"/>
        <path fill="#4d4d4d" d="M17.3 218.484v75.035H0v-75.035h17.3z"/>
        <path fill="#4d4d4d" d="M48.589 218.484v30.517h-17.3v-30.517h17.3z"/>
        <path fill="#4d4d4d" d="M48.589 262.991v30.517h-17.3v-30.517h17.3z"/>
        <path fill="#4d4d4d" d="M512.004 218.484v30.517h-17.3v-30.517h17.3z"/>
        <path fill="#4d4d4d" d="M512.004 262.991v30.517h-17.3v-30.517h17.3z"/>
        <path fill="#4d4d4d" d="M449.436 218.484v30.517h-17.3v-30.517h17.3z"/>
        <path fill="#4d4d4d" d="M449.436 262.991v30.517h-17.3v-30.517h17.3z"/>
        <path fill="#4d4d4d" d="M480.714 218.484v75.035h-17.3v-75.035h17.3z"/>
    </g>
</svg>
