<?xml version="1.0" encoding="UTF-8"?>
<svg data-bbox="44.914 0 421.324 511.153" xmlns="http://www.w3.org/2000/svg" width="512" viewBox="0 0 511.153 511.153" height="512" data-type="shape">
    <g>
        <path d="M169.057 399.815h-40.753c-10.972 0-21.284-4.275-29.037-12.039s-12.015-18.081-12-29.052l.108-82.421a7.498 7.498 0 0 0-3.991-6.638L59.92 257.279l28.782-50.184a23.662 23.662 0 0 0 3.129-11.749V139.12c0-13.893 5.732-27.395 15.727-37.045l5.651-5.457h29.033c36.776 0 66.695 29.919 66.695 66.695v.159c0 4.142 3.357 7.5 7.5 7.5s7.5-3.358 7.5-7.5v-.159c0-45.047-36.648-81.695-81.695-81.695h-30.706c-15.071 0-27.333-12.262-27.333-27.333V18.563A3.567 3.567 0 0 1 87.766 15h165.46c46.479 0 91.658 16.438 127.217 46.285a7.499 7.499 0 0 0 10.566-.923 7.5 7.5 0 0 0-.922-10.566C351.83 17.685 303.226 0 253.226 0H87.766C77.53 0 69.203 8.327 69.203 18.563v35.723c0 17.533 10.715 32.609 25.94 39.028-11.665 12.287-18.312 28.817-18.312 45.806v56.227a8.63 8.63 0 0 1-1.142 4.287l-28.781 50.183a14.848 14.848 0 0 0-1.395 11.606 14.841 14.841 0 0 0 7.375 9.069l19.48 10.313-.103 77.899c-.02 14.982 5.8 29.071 16.387 39.671 10.587 10.601 24.669 16.439 39.65 16.439h33.253v88.838c0 4.142 3.357 7.5 7.5 7.5s7.5-3.358 7.5-7.5v-96.338a7.497 7.497 0 0 0-7.498-7.499z"/>
        <path d="M413.738 72.985a7.5 7.5 0 1 0-11.299 9.866 197.861 197.861 0 0 1 48.798 130.162 197.99 197.99 0 0 1-4.418 41.573l-32.391-3.512a7.484 7.484 0 0 0-8.265 6.648 7.5 7.5 0 0 0 6.647 8.265l30.256 3.28a197.977 197.977 0 0 1-59.509 92.815l-36.987 32.339a10.72 10.72 0 0 1-7.83 2.64 10.712 10.712 0 0 1-7.4-3.677l-46.353-53.233c-3.867-4.44-3.431-11.234.972-15.144l27.314-24.258a39.365 39.365 0 0 0 13.214-29.41l-.001-14.71 53.634 5.814a7.5 7.5 0 0 0 1.617-14.913l-57.294-6.211c-5.232-15.584-19.966-26.848-37.288-26.848-21.688 0-39.333 17.645-39.333 39.333v14.393l-22.586 16.135c-.133.095-.407.291-.854.062-.446-.229-.446-.569-.446-.731v-88.226c0-4.142-3.357-7.5-7.5-7.5s-7.5 3.358-7.5 7.5v88.226a15.762 15.762 0 0 0 8.583 14.069 15.764 15.764 0 0 0 16.437-1.195l25.726-18.378a7.5 7.5 0 0 0 3.141-6.103v-18.252c0-13.417 10.916-24.333 24.333-24.333 13.415 0 24.329 10.914 24.331 24.329l.001 17.54c0 6.949-2.979 13.58-8.175 18.193l-27.314 24.258c-10.526 9.349-11.568 25.593-2.323 36.21l46.353 53.233a25.795 25.795 0 0 0 7.315 5.828v94.591c0 4.142 3.357 7.5 7.5 7.5s7.5-3.358 7.5-7.5v-91.739a25.586 25.586 0 0 0 14.101-6.201l36.987-32.338a212.995 212.995 0 0 0 72.806-160.363c-.001-51.521-18.645-101.25-52.5-140.027z"/>
        <path d="M145.48 342.423h-31.74c-4.143 0-7.5 3.358-7.5 7.5s3.357 7.5 7.5 7.5h31.74c27.16 0 49.256 22.096 49.256 49.255v76.405c0 4.142 3.357 7.5 7.5 7.5s7.5-3.358 7.5-7.5v-76.405c-.001-35.43-28.826-64.255-64.256-64.255z"/>
        <path d="M155.288 308.785h-42.549c-4.143 0-7.5 3.358-7.5 7.5s3.357 7.5 7.5 7.5h42.549c58.863 0 106.753 47.889 106.753 106.753v52.545c0 4.142 3.357 7.5 7.5 7.5s7.5-3.358 7.5-7.5v-52.545c0-67.135-54.618-121.753-121.753-121.753z"/>
    </g>
</svg>
