<?xml version="1.0" encoding="UTF-8"?>
<svg data-bbox="-0.002 46.99 512.002 418.021" viewBox="0 0 512 512" xmlns="http://www.w3.org/2000/svg" data-type="shape">
    <g>
        <path d="M354.985 66.116c-62.859-25.769-134.813-25.487-197.411.774l-.443.186c-15.278 6.41-24.458 20.994-22.843 36.29.541 5.137 4.88 8.954 9.933 8.954.351 0 .705-.019 1.062-.057 5.492-.579 9.476-5.502 8.896-10.995-.681-6.449 3.616-12.778 10.691-15.746l.442-.186c57.74-24.223 124.108-24.482 182.088-.711 7.392 3.029 11.736 9.569 10.81 16.272-.756 5.471 3.066 10.52 8.539 11.275 5.466.748 10.52-3.066 11.275-8.539 2.192-15.89-7.065-30.967-23.039-37.517z"/>
        <path d="M501.405 105.244c-18.183-25.583-52.91-32.016-79.059-14.646l-15.426 10.25c-28.948 19.234-63.738 26.491-97.955 20.438l-14.735-2.608c-25.009-4.422-51.45-4.421-76.466.001l-14.731 2.607c-34.224 6.051-69.008-1.202-97.955-20.438l-15.427-10.25c-26.146-17.371-60.872-10.94-79.059 14.646-17.364 24.424-12.947 58.606 10.056 77.815l22.995 19.203.254.209c.218.178.351.431.396.75 1.659 11.755 7.755 23.41 17.165 32.821 9.198 9.198 20.599 15.258 32.102 17.064 12.478 1.96 24.131-1.403 31.956-9.229 7.823-7.823 11.188-19.472 9.229-31.956-1.806-11.504-7.865-22.903-17.064-32.102-8.542-8.541-19.148-14.455-29.868-16.652-2.183-.447-4.361-1.651-6.296-3.479-.42-.397-.855-.784-1.31-1.165L57.189 139.3c-.277-.232-.342-.732-.132-1.026.259-.367.669-.444 1.047-.193l15.426 10.25a191.538 191.538 0 0 0 82.225 30.554c12.999 19.845 16.186 42.875 8.685 63.689a77.993 77.993 0 0 0-4.548 30.36c.813 16.824 7.063 33.185 18.073 47.314 23.217 29.793 35.488 65.505 35.488 103.274v31.488c0 5.522 4.478 10.001 10.001 10.001h65.036c5.522 0 10.001-4.478 10.001-10.001v-31.477c0-36.619 12.65-72.657 36.581-104.218 11.358-14.977 17.361-32.339 17.361-50.208a78.045 78.045 0 0 0-4.283-25.518c-7.396-21.435-4.314-44.828 8.396-64.709 29.141-3.674 57.091-14.049 81.924-30.549l15.133-10.056c.482-.321 1.059-.291 1.227-.129.081.078.249.24.236.579-.004.112-.036.394-.257.577l-23.02 19.224a29.43 29.43 0 0 0-1.487 1.334c-5.836 5.585-12.017 10.07-18.369 13.33-5.305 2.722-10.27 6.254-14.756 10.5-9.449 8.939-15.822 20.167-17.945 31.615-2.306 12.426.734 24.162 8.339 32.201 7.604 8.037 19.16 11.728 31.69 10.108 11.549-1.486 23.111-7.229 32.561-16.168 12.303-11.64 19.142-26.752 18.687-40.981l20.844-17.406c23-19.21 27.418-53.391 10.052-77.815zM329.242 250.113a58.09 58.09 0 0 1 3.189 18.992c0 13.47-4.598 26.652-13.297 38.123-26.591 35.065-40.646 75.283-40.646 116.303v21.476h-45.034V423.52c0-42.266-13.732-82.229-39.713-115.568-8.461-10.859-13.259-23.303-13.872-35.986a58.068 58.068 0 0 1 3.388-22.611c8.112-22.515 6.63-46.875-3.795-68.992 7.263.001 14.551-.404 21.829-1.239l.034 5.896c.125 21.606 9.299 42.41 25.167 57.072L246 260.119v25.625c0 5.522 4.478 10.001 10.001 10.001 5.522 0 10.001-4.478 10.001-10.001v-25.627l19.506-18.023c15.87-14.664 25.044-35.466 25.169-57.071l.034-5.899a193.171 193.171 0 0 0 21.95 1.259c.106 0 .211-.003.317-.003-10.2 22.156-11.657 46.776-3.736 69.733zm149.287-82.405L455.5 186.94c-3.698 3.084-5.601 7.81-5.089 12.641.917 8.649-3.925 19.379-12.337 27.337-6.305 5.965-14.094 9.924-21.368 10.86-3.597.462-10.279.558-14.605-4.017-7.358-7.778-3.318-24.054 8.824-35.542 3.109-2.942 6.521-5.376 10.141-7.232 8.072-4.143 15.834-9.753 23.067-16.676.157-.15.317-.297.481-.434l23.016-19.221c4.509-3.765 7.216-9.313 7.426-15.219a20.796 20.796 0 0 0-6.347-15.693c-6.947-6.693-17.955-7.586-26.175-2.127l-15.133 10.056c-28.264 18.78-61.025 28.708-94.742 28.71-7.896 0-15.886-.554-23.746-1.646-4.571-.63-9.197.73-12.682 3.748a15.911 15.911 0 0 0-5.495 11.938l-.062 10.486c-.093 16.089-6.923 31.578-18.74 42.498L256 242.126 240.065 227.4c-11.816-10.919-18.647-26.409-18.739-42.498l-.061-10.48a15.911 15.911 0 0 0-5.497-11.941 16.002 16.002 0 0 0-10.476-3.899c-.734 0-1.474.05-2.211.152-41.469 5.762-83.547-3.851-118.483-27.065l-15.424-10.248c-9.396-6.247-21.879-3.938-28.421 5.263-6.239 8.781-4.65 21.065 3.615 27.968l23.013 19.218c.134.111.263.227.393.35 4.647 4.392 10.189 7.345 16.022 8.541 6.926 1.42 13.938 5.397 19.74 11.202 6.138 6.137 10.311 13.814 11.448 21.06.562 3.582.841 10.259-3.612 14.711-4.452 4.451-11.129 4.174-14.711 3.612-7.246-1.138-14.923-5.31-21.06-11.448-6.27-6.269-10.463-14.096-11.504-21.475a21.161 21.161 0 0 0-7.611-13.496l-23.017-19.222c-15.039-12.559-17.927-34.905-6.574-50.874 11.891-16.727 34.595-20.931 51.688-9.575l15.426 10.25c33.247 22.091 73.2 30.432 112.51 23.473l14.73-2.606c22.735-4.019 46.768-4.019 69.497-.001l14.734 2.607c39.305 6.956 79.262-1.382 112.509-23.473l15.425-10.249c17.096-11.357 39.8-7.152 51.689 9.574v.001c11.353 15.968 8.466 38.316-6.574 50.876z"/>
        <path d="M263.279 308.671a10.066 10.066 0 0 0-7.069-2.92 10.07 10.07 0 0 0-7.07 2.92 10.1 10.1 0 0 0-2.93 7.08c0 2.63 1.069 5.21 2.93 7.061a10.046 10.046 0 0 0 7.07 2.939c2.63 0 5.21-1.069 7.069-2.939a10.04 10.04 0 0 0 2.931-7.061c0-2.64-1.07-5.21-2.931-7.08z"/>
        <path d="M277.188 340.508c-3.906-3.905-10.237-3.905-14.143 0-3.753 3.753-9.862 3.755-13.617 0-3.906-3.904-10.237-3.904-14.144 0-3.905 3.905-3.905 10.238 0 14.144 5.776 5.775 13.364 8.664 20.951 8.664 7.588 0 15.176-2.889 20.952-8.664 3.906-3.905 3.906-10.238.001-14.144z"/>
    </g>
</svg>
