<?xml version="1.0" encoding="UTF-8"?>
<svg data-bbox="1.506 0 125.043 128" viewBox="0 0 128 128" height="512" width="512" xmlns="http://www.w3.org/2000/svg" data-type="shape">
    <g>
        <path d="M47.924 19.953A12.375 12.375 0 1 0 60.3 32.328a12.39 12.39 0 0 0-12.376-12.375zm0 21.25a8.875 8.875 0 1 1 8.876-8.875 8.885 8.885 0 0 1-8.876 8.872z"/>
        <path d="M47.924 11.953a20.369 20.369 0 0 0-5.75 39.912v4h-8.907a1.75 1.75 0 0 0-1.75 1.75v8a1.749 1.749 0 0 0 1.75 1.75h8.907v8.908a1.75 1.75 0 0 0 1.75 1.75h8a1.75 1.75 0 0 0 1.75-1.75v-8.912h8.908a1.749 1.749 0 0 0 1.75-1.75v-8a1.75 1.75 0 0 0-1.75-1.75h-8.908v-4a20.369 20.369 0 0 0-5.75-39.912zM51.548 48.8a1.75 1.75 0 0 0-1.374 1.709v7.1a1.749 1.749 0 0 0 1.75 1.75h8.908v4.5h-8.908a1.75 1.75 0 0 0-1.75 1.75v8.908h-4.5v-8.906a1.75 1.75 0 0 0-1.75-1.75h-8.907v-4.5h8.907a1.749 1.749 0 0 0 1.75-1.75v-7.1A1.751 1.751 0 0 0 44.3 48.8a16.875 16.875 0 1 1 7.248 0z"/>
        <path d="M114.741 69.982h-9.09v-9.089a1.749 1.749 0 0 0-1.75-1.75h-8a1.75 1.75 0 0 0-1.75 1.75v9.089h-9.09a1.751 1.751 0 0 0-1.75 1.75v8a1.75 1.75 0 0 0 1.75 1.75h9.09v9.09a1.75 1.75 0 0 0 1.75 1.75h8a1.749 1.749 0 0 0 1.75-1.75v-9.09h9.09a1.749 1.749 0 0 0 1.75-1.75v-8a1.75 1.75 0 0 0-1.75-1.75zm-1.75 8H103.9a1.751 1.751 0 0 0-1.75 1.75v9.09h-4.5v-9.09a1.75 1.75 0 0 0-1.75-1.75h-9.09v-4.5h9.09a1.749 1.749 0 0 0 1.75-1.75v-9.089h4.5v9.089a1.75 1.75 0 0 0 1.75 1.75h9.09z"/>
        <path d="M99.9 49.135a26.431 26.431 0 0 0-14.686 4.437 52.333 52.333 0 0 1-3.3-39.012l3.827-12.288A1.751 1.751 0 0 0 84.07 0H11.778a1.751 1.751 0 0 0-1.671 2.27l3.825 12.287a52.223 52.223 0 0 1-4.8 41.83 55.75 55.75 0 0 0-6.94 36.863l5.3 33.271A1.751 1.751 0 0 0 9.222 128h77.4a1.75 1.75 0 0 0 1.728-1.475l4.029-25.283a26.6 26.6 0 1 0 7.518-52.1zM85.133 124.5H49.674v-30c9.078-1.316 16.952-12.3 17.3-12.8a1.75 1.75 0 0 0-2.856-2.023c-.081.115-8.216 11.45-16.2 11.45S31.808 79.8 31.727 79.685a1.75 1.75 0 0 0-2.857 2.023c.352.5 8.226 11.48 17.3 12.8V124.5H10.715L5.65 92.7a52.237 52.237 0 0 1 6.5-34.543 55.723 55.723 0 0 0 5.121-44.639L14.156 3.5h67.536l-3.117 10.02A55.848 55.848 0 0 0 82.4 55.733 26.566 26.566 0 0 0 89.035 100zM99.9 98.829a23.1 23.1 0 1 1 23.1-23.1 23.123 23.123 0 0 1-23.1 23.1z"/>
    </g>
</svg>
