<?xml version="1.0" encoding="UTF-8"?>
<svg data-bbox="0.001 -0.001 512.001 512" xmlns="http://www.w3.org/2000/svg" width="512" viewBox="0 0 512.003 512.003" height="512" data-type="shape">
    <g>
        <path d="M507.385 231.294l-69.866-82.804c20.615-45.682 17.247-100.128-9.267-143.688-2.871-4.718-9.024-6.213-13.741-3.343a9.971 9.971 0 0 0-4.719 7.329c-22.484 92.075-93.591 162.909-185.838 184.999a271.5 271.5 0 0 0-128.815 72.092A271.497 271.497 0 0 0 24.125 390.36a272.213 272.213 0 0 0-19.64 11.827c-4.606 3.048-5.87 9.252-2.823 13.858a9.992 9.992 0 0 0 8.35 4.483c1.894 0 3.81-.537 5.508-1.66 24.545-16.237 51.527-27.95 80.196-34.816 33.055-7.915 63.945-21.756 91.813-41.139 4.534-3.154 5.653-9.386 2.5-13.92s-9.385-5.652-13.919-2.5c-25.813 17.955-54.428 30.776-85.051 38.109a271.718 271.718 0 0 0-42.666 14.034c27.242-82.449 94.633-144.904 180.221-165.401a271.71 271.71 0 0 0 42.645-14.033c-7.862 23.731-19.161 46.049-33.756 66.557-3.202 4.499-2.15 10.743 2.349 13.945a9.954 9.954 0 0 0 5.79 1.854 9.989 9.989 0 0 0 8.156-4.203c19.405-27.266 33.423-57.488 41.736-89.882A271.556 271.556 0 0 0 422.12 37.686c13.191 34.967 11.576 74.455-5.327 107.791a10 10 0 0 0 1.276 10.971l73.735 87.39-28.588 18.808a10.002 10.002 0 0 0-3.071 13.513l11.005 18.276a17.597 17.597 0 0 1 1.65 14.567 17.598 17.598 0 0 1-9.946 10.771 10.002 10.002 0 0 0-2.789 16.698c4.097 3.645 6.058 8.854 5.379 14.296-.678 5.44-3.858 10.011-8.732 12.541l-.616.32a9.999 9.999 0 0 0-5.385 8.871v33.5c0 17.645-14.355 32-32 32h-58.693a133.294 133.294 0 0 0-72.253 21.23l-53.422 34.359c-4.645 2.987-5.988 9.175-3.001 13.819a9.99 9.99 0 0 0 8.42 4.592 9.946 9.946 0 0 0 5.4-1.591l53.422-34.359a113.339 113.339 0 0 1 61.434-18.051h58.693c28.673 0 52-23.327 52-52v-27.914a36.414 36.414 0 0 0 10.513-46.603 37.581 37.581 0 0 0 10.583-16.259 37.587 37.587 0 0 0-3.524-31.107l-6.048-10.044 20.945-13.78a19.609 19.609 0 0 0 8.621-13.554 19.613 19.613 0 0 0-4.416-15.443z"/>
        <path d="M5.097 191.108a9.996 9.996 0 0 0 13.62-3.808 182.796 182.796 0 0 0 18.482-47.12C51.553 80.236 97.708 34.08 157.652 19.726c5.371-1.286 8.683-6.683 7.396-12.054-1.286-5.371-6.687-8.681-12.054-7.396a182.756 182.756 0 0 0-86.715 48.529 182.77 182.77 0 0 0-48.53 86.716A162.827 162.827 0 0 1 1.29 177.487c-2.711 4.813-1.006 10.911 3.807 13.621z"/>
        <path d="M216.502 295.841c-2.63 0-5.21 1.06-7.07 2.92a10.093 10.093 0 0 0-2.93 7.07 10.1 10.1 0 0 0 2.93 7.08c1.86 1.859 4.44 2.93 7.07 2.93s5.21-1.07 7.07-2.93a10.1 10.1 0 0 0 2.93-7.08c0-2.63-1.07-5.2-2.93-7.07a10.048 10.048 0 0 0-7.07-2.92z"/>
    </g>
</svg>
