<?xml version="1.0" encoding="UTF-8"?>
<svg data-bbox="16.2 32.903 95.4 62.097" xmlns="http://www.w3.org/2000/svg" viewBox="0 0 128 128" data-type="shape">
    <g>
        <path d="M109.9 59.3h-8.2c1.8-3.3.6-7.4-2.7-9.1-1-.5-2.1-.8-3.2-.8h-6.9v-6.8c2.5-1 3.8-3.8 2.9-6.4-1-2.5-3.8-3.8-6.4-2.9-2.5 1-3.8 3.8-2.9 6.4.5 1.3 1.5 2.3 2.8 2.8v6.8H74v-6.8c2.5-1 3.8-3.8 2.9-6.4-1-2.5-3.8-3.8-6.4-2.9-2.5 1-3.8 3.8-2.9 6.4.5 1.3 1.5 2.4 2.9 2.9v6.8H59.1v-6.8c2.5-1 3.8-3.8 2.9-6.4s-3.8-3.8-6.4-2.9c-2.5 1-3.8 3.8-2.9 6.4.5 1.3 1.5 2.4 2.9 2.9v6.8h-6.9c-3.7 0-6.7 3-6.8 6.8v3.2h-1.6c2.6-3.7 1.7-8.8-2-11.4s-8.8-1.7-11.4 2c-2 2.8-2 6.5 0 9.3H18c-1 0-1.8.8-1.8 1.8v12.9c0 1 .8 1.8 1.8 1.8h7.5l-5.4 17c-.3.9.2 1.9 1.1 2.2.2.1 5.2.1 5.2.1.7 0 1.3-.4 1.6-1.1l7.5-17.8c.1 3.7 3.2 6.6 7 6.5 2-.1 4-1.1 5.2-2.7l3.2-4.3h41.2l7.7 18.3c.3.6.9 1.1 1.6 1.1h4.6c1 0 2.1-.9 1.7-2.3-1.3-4.3-5.4-17-5.4-17h7.5c1 0 1.8-.8 1.8-1.8V61c0-1-.8-1.7-1.7-1.7zM87.1 36.5c.8 0 1.4.6 1.4 1.4s-.6 1.4-1.4 1.4-1.4-.6-1.4-1.4c-.1-.8.6-1.4 1.4-1.4zm-14.9 0c.8 0 1.4.6 1.4 1.4s-.6 1.4-1.4 1.4-1.4-.6-1.4-1.4.6-1.4 1.4-1.4zm-14.8 0c.8 0 1.4.6 1.4 1.4s-.6 1.4-1.4 1.4-1.4-.6-1.4-1.4c-.1-.8.6-1.4 1.4-1.4zM29.1 54.6c0-2.6 2.1-4.7 4.7-4.7s4.7 2.1 4.7 4.7-2.1 4.7-4.7 4.7c-2.7 0-4.7-2.1-4.7-4.7zm-9.2 8.2H42v2.4s-5.1 6.9-5.2 7H19.9zm5.5 28.7h-1.1l5-15.8H32zM45 77.9c-1.1 1.4-3.1 1.7-4.6.6-1.4-1.1-1.7-3.1-.6-4.6l5.4-7.2c.2-.3.3-.7.3-1V56c0-1.8 1.5-3.2 3.3-3.3h47c1.8 0 3.2 1.5 3.2 3.2 0 1.6-1.2 3-2.9 3.2H53.7c-1 0-1.8.8-1.8 1.8v6.3c0 .7-.2 1.4-.7 2zm58.7 13.6h-1.1L96 75.7h2.7zm4.4-19.3H53.6c1.5-1.9 1.9-3.1 1.9-4.8v-4.6h52.6z"/>
    </g>
</svg>
