<?xml version="1.0" encoding="UTF-8"?>
<svg data-bbox="9.76 0 492.483 512.003" height="512" width="512" viewBox="0 0 512.004 512.004" xmlns="http://www.w3.org/2000/svg" data-type="shape">
    <g>
        <path d="M256.002 207.085c-13.363 0-24.234-10.871-24.234-24.234s10.871-24.234 24.234-24.234c13.363 0 24.234 10.871 24.234 24.234s-10.871 24.234-24.234 24.234zm0-33.467c-5.092 0-9.234 4.142-9.234 9.234s4.142 9.234 9.234 9.234 9.234-4.142 9.234-9.234-4.142-9.234-9.234-9.234z"/>
        <path d="M256.002 104.914c-13.363 0-24.234-10.872-24.234-24.234s10.871-24.234 24.234-24.234c13.363 0 24.234 10.871 24.234 24.234s-10.871 24.234-24.234 24.234zm0-33.468c-5.092 0-9.234 4.142-9.234 9.234s4.142 9.234 9.234 9.234 9.234-4.143 9.234-9.234-4.142-9.234-9.234-9.234z"/>
        <path d="M256.002 411.429c-13.363 0-24.234-10.871-24.234-24.234s10.871-24.234 24.234-24.234c13.363 0 24.234 10.872 24.234 24.234s-10.871 24.234-24.234 24.234zm0-33.469c-5.092 0-9.234 4.143-9.234 9.234s4.142 9.234 9.234 9.234 9.234-4.142 9.234-9.234-4.142-9.234-9.234-9.234z"/>
        <path d="M59.954 443.363a7.5 7.5 0 0 0 8.142 3.65l88.856-19.462c13.42-2.939 23.997-13.508 26.946-26.926l9.571-43.549a166.775 166.775 0 0 0 3.24-50.586l-3.223-36.361a7.5 7.5 0 0 0-6.6-6.787 7.496 7.496 0 0 0-7.988 5.082l-19.93 59.905a25.92 25.92 0 0 1-5.803 9.648l-92.1 96.533a7.5 7.5 0 0 0-1.111 8.853zm104.064-95.032a41.009 41.009 0 0 0 9.184-15.268l8.531-25.642.035.393a151.79 151.79 0 0 1-2.949 46.042l-9.571 43.549c-1.697 7.721-7.783 13.802-15.504 15.494l-64.887 14.212 75.161-78.78z"/>
        <path d="M342.756 397.404l-2.111-9.604a7.5 7.5 0 0 0-14.651 3.221l2.111 9.604c2.949 13.418 13.525 23.987 26.945 26.926l88.857 19.462a7.5 7.5 0 0 0 7.031-12.504l-92.102-96.534a25.946 25.946 0 0 1-5.804-9.648l-19.93-59.905a7.501 7.501 0 0 0-14.587 1.705l-3.224 36.361a166.796 166.796 0 0 0 3.24 50.586l.905 4.12a7.5 7.5 0 0 0 14.651-3.22l-.905-4.12a151.818 151.818 0 0 1-2.949-46.042l.035-.394 8.531 25.644a41.015 41.015 0 0 0 9.184 15.267l75.163 78.78-64.889-14.212c-7.718-1.69-13.804-7.772-15.501-15.493z"/>
        <path d="M500.842 455.796c-2.4-6.805-7.557-12.059-14.145-14.591l-87.853-135.141a8.53 8.53 0 0 0-.202-.295 25.87 25.87 0 0 1-4.597-11.4 7.17 7.17 0 0 0-.118-.632l-17.541-75.545a63.887 63.887 0 0 0-4.795-16.483l16.974-14.031a25.283 25.283 0 0 0 13.945 4.179c14.025 0 25.437-11.411 25.437-25.436s-11.411-25.436-25.437-25.436-25.437 11.411-25.437 25.436c0 3.435.688 6.71 1.927 9.702l-15.144 12.518c-6.748-8.852-15.757-15.976-26.281-20.388l-25.389-10.643c-8.616-3.612-14.652-11.273-16.147-20.496l-1.568-9.667C309 110.689 317.907 88.004 317.907 67.36c0-18.213-3.326-32.321-10.168-43.128C297.56 8.153 280.153 0 256.002 0c-61.905 0-61.905 50.7-61.905 67.36 0 20.645 8.907 43.33 23.434 60.087l-1.567 9.667c-1.496 9.222-7.532 16.884-16.147 20.496l-25.389 10.643c-20.671 8.666-35.516 27.782-38.81 49.939l-1.227 5.284a7.5 7.5 0 0 0 14.611 3.393l1.298-5.588a7.93 7.93 0 0 0 .119-.633c2.451-17.105 13.873-31.881 29.808-38.561l25.39-10.644c13.421-5.627 22.825-17.563 25.155-31.928l2.144-13.222a7.502 7.502 0 0 0-1.948-6.348c-13.489-14.296-21.869-34.445-21.869-52.585 0-27.195 5.682-52.36 46.905-52.36 32.439 0 46.905 16.148 46.905 52.36 0 18.139-8.38 38.288-21.869 52.585a7.498 7.498 0 0 0-1.948 6.348l2.145 13.222c2.329 14.366 11.733 26.302 25.155 31.929l25.389 10.643c8.26 3.463 15.291 9.112 20.505 16.122l-81.662 67.502a24.107 24.107 0 0 0-14.619-4.921c-13.363 0-24.234 10.871-24.234 24.234s10.871 24.234 24.234 24.234c13.363 0 24.234-10.871 24.234-24.234 0-2.417-.36-4.75-1.022-6.955l80.22-66.31a48.829 48.829 0 0 1 2.153 8.889c.03.212.069.424.118.633l17.542 75.551a40.945 40.945 0 0 0 7.114 17.551l87.988 135.35a7.499 7.499 0 0 0 5.553 5.051l.014.003c3.214.708 5.685 2.893 6.779 5.998 1.097 3.11.54 6.368-1.528 8.938-15.442 19.18-39.288 29.247-63.788 26.959l-164.324-23.289a7.497 7.497 0 0 0-2.105 0L90.625 496.682c-24.514 2.29-48.346-7.779-63.788-26.96-2.068-2.569-2.625-5.827-1.529-8.937 1.097-3.111 3.575-5.299 6.797-6.002a7.5 7.5 0 0 0 4.695-3.25l88.845-137.156a40.916 40.916 0 0 0 7.11-17.544l9.406-40.512a7.5 7.5 0 0 0-14.611-3.393l-9.475 40.809a7.93 7.93 0 0 0-.119.633 25.848 25.848 0 0 1-4.596 11.399 7.17 7.17 0 0 0-.209.306L25.719 441.05c-6.785 2.469-12.107 7.799-14.557 14.746-2.822 8.001-1.33 16.724 3.991 23.332 16.863 20.947 42.027 32.877 68.58 32.875 2.814 0 5.649-.134 8.486-.406.113-.011.226-.024.337-.04l163.445-23.165 163.444 23.165c.112.016.225.029.338.04 29.602 2.833 58.415-9.303 77.066-32.469 5.323-6.608 6.814-15.331 3.993-23.332zm-98.331-299.812c5.755 0 10.437 4.682 10.437 10.436s-4.682 10.436-10.437 10.436-10.437-4.682-10.437-10.436 4.682-10.436 10.437-10.436zM256.002 294.257c-5.092 0-9.234-4.142-9.234-9.234s4.142-9.234 9.234-9.234 9.234 4.142 9.234 9.234-4.142 9.234-9.234 9.234z"/>
    </g>
</svg>
