<?xml version="1.0" encoding="UTF-8"?>
<svg data-bbox="0 0 1194 593.848" xmlns="http://www.w3.org/2000/svg" viewBox="0 0 1194 596" height="596pt" width="1592" data-type="color">
    <g>
        <path d="M98.43 0h9.93c23.97 1 47.21 11.23 64.17 28.19-6.5 6.53-13.02 13.04-19.54 19.54C142.06 37.42 128 30.3 113 28.52c-17.09-2.27-35 1.47-49.46 10.95-13.15 8.51-23.37 21.43-28.7 36.15-7.12 19.38-5.9 41.68 3.46 60.09 7.46 14.83 20.15 26.99 35.37 33.64 15.09 6.72 32.36 7.67 48.36 4.01 13.34-3.03 25.55-10.53 34.53-20.82 7.65-9.06 11.2-20.78 12.78-32.35-22.12-.01-44.24.01-66.36-.01-.01-9.26-.03-18.52.01-27.77 31.16 0 62.32-.02 93.48 0 3.18 19.83 1.06 40.71-6.97 59.18-6.75 15.67-19.06 28.45-33.32 37.56-17.79 11.25-39.43 15.03-60.21 13.75-25.33-1.65-49.76-13.2-67.35-31.44C11.67 154.15 1.33 130.66 0 106.47v-9.83c1.29-23.01 10.66-45.42 26.23-62.42C44.52 13.84 71.08 1.29 98.43 0Z" fill="#4285f4" data-color="1"/>
        <path d="M538.1 78.1c12.8-7.67 28.73-10.44 43.21-6.41 8.42 2.17 15.76 7.16 21.78 13.32.14-3.93.09-7.86.1-11.79 9.11 0 18.23-.01 27.34.01-.01 39.6.03 79.21-.02 118.81-.09 16.76-3.82 34.38-14.83 47.5-9.93 12.09-25.39 18.53-40.75 19.64-14.56 1.36-29.73-1.88-41.83-10.27-10.17-6.93-18.18-16.88-23.02-28.17 8.35-3.48 16.71-6.93 25.06-10.39 3.85 8.66 10.39 16.39 19.14 20.35 8.48 3.91 18.41 3.76 27.2.97 8.2-2.63 14.95-9.06 18.19-17.01 3.97-9.13 3.66-19.29 3.43-29.03-5.57 5.63-12.04 10.57-19.74 12.88-13.75 4.54-29.19 2.64-41.96-3.98-13.06-6.72-23.47-18.21-29.31-31.64-7.26-16.55-7.56-35.98-.94-52.77 5.18-13.22 14.69-24.78 26.95-32.02m24.26 18.51c-7.13 1.65-13.6 5.83-18.17 11.53-10.12 12.72-11.54 31.18-5.18 45.9 3.29 7.47 9.02 13.96 16.37 17.62 9.96 5.05 22.49 4.53 32-1.33 8.36-5.06 14.13-13.79 16.39-23.22 3.75-15.44-.2-33.58-12.83-43.95-7.8-6.54-18.72-8.93-28.58-6.55Z" fill="#4285f4" data-color="1"/>
        <path d="M653.07 2.7c9.44-.02 18.88-.02 28.33 0 .02 66.09.01 132.19 0 198.29-9.44.01-18.89.02-28.34 0 .01-66.1 0-132.2.01-198.29Z" fill="#34a853" data-color="2"/>
        <path d="M269.53 70.75c15.01-2.44 30.88.05 44.18 7.51 11.11 6.15 20.3 15.7 25.94 27.09 7.34 14.68 8.78 32.06 4.6 47.88-3.81 14.43-12.84 27.43-25.14 35.91-13.3 9.34-30.11 13.28-46.2 11.4-17.42-1.89-34-10.98-44.6-24.98-16.81-21.71-17.72-54.04-2.56-76.85 9.78-14.97 26.18-25.19 43.78-27.96m2.94 25.93c-7.85 1.85-14.99 6.45-19.99 12.76-9.38 11.79-11.09 28.72-5.48 42.53 3.95 9.71 12.06 17.73 22.02 21.15 10.05 3.59 21.68 2.27 30.69-3.43 9.06-5.58 15.28-15.22 17.23-25.62 3-14.78-1.88-31.53-14.13-40.83-8.44-6.62-19.92-9.08-30.34-6.56Z" fill="#ea4335" data-color="3"/>
        <path d="M730.66 80.71c13.77-9.68 31.68-13.11 48.08-9.42 14.2 3.12 26.45 12.49 34.59 24.35 5.15 7.08 8.24 15.31 11.35 23.42-29.22 12.09-58.45 24.15-87.67 36.24 3.91 7.65 10.08 14.5 18.3 17.51 11.23 4.04 24.57 2.92 34.44-4.03 4.52-3.1 8.17-7.27 11.34-11.7 7.46 4.97 14.92 9.93 22.37 14.92-8.57 12.42-21.24 22.17-35.81 26.37-16.73 4.8-35.39 3.05-50.69-5.33-11.61-6.28-21.04-16.38-26.66-28.3-7.18-15.02-8.21-32.61-4.01-48.62 3.72-14.13 12.29-27.08 24.37-35.41m11.67 24.6c-7.06 7.47-9.95 17.95-9.97 28.04 19.77-8.09 39.46-16.36 59.25-24.43-2.15-5.32-6.64-9.38-11.8-11.7-12.54-5.8-28.28-2.02-37.48 8.09Z" fill="#ea4335" data-color="3"/>
        <path d="M416.59 70.69c14.98-2.36 30.79.21 44.02 7.71 10.86 6.07 19.87 15.4 25.47 26.51 8.19 16.09 9.31 35.51 3.54 52.56-4.9 14.5-15.23 27.06-28.53 34.64-25.05 14.75-59.66 10.84-80.25-9.89-20.84-20.07-25-54.27-10.97-79.31 9.41-17.29 27.33-29.33 46.72-32.22m4.54 25.58c-7.61 1.34-14.73 5.22-20 10.87-10.6 11.19-13.24 28.5-8.23 42.84 3.36 9.72 10.76 18.06 20.24 22.15 9.75 4.34 21.45 3.92 30.87-1.09 9.35-4.83 16.22-13.88 18.9-24.01 3.95-14.53.28-31.5-11.08-41.8-8.11-7.55-19.8-10.96-30.7-8.96Z" fill="#fbbc05" data-color="4"/>
        <path d="M695.31 283.5c4.97-2.64 11.55 1.91 10.99 7.47-.15 5.67-7.51 9.34-12.05 5.84-4.89-3.02-4.18-11.07 1.06-13.31Z" fill="#f2f2f2" data-color="5"/>
        <path d="M13.07 293.14c15.23-13.24 40.4-13.01 55.13.93-1.75 2.32-3.06 5.08-5.39 6.89-1.86.58-3.42-.92-4.92-1.75-9.11-6.43-21.91-7.06-31.72-1.85-7.66 4.08-12.37 12.23-13.8 20.6-1.63 9.74-.66 20.4 4.91 28.8 4.33 6.67 11.87 11 19.78 11.64 7.56.58 15.85-.48 21.8-5.59 1.47-.93 2.75-2.78 4.69-2.49 2.36 1.59 4.03 3.97 5.95 6.03-6.61 7.6-16.38 12.1-26.42 12.47-10.61.87-21.78-1.87-29.91-8.96-7.31-6.2-11.56-15.32-13.17-24.63v-17.74c1.55-9.24 5.9-18.19 13.07-24.35Z" fill="#f2f2f2" data-color="5"/>
        <path d="M511.41 284.41c9.39.07 18.79-.14 28.18.11 8.38.48 17.67 2.82 22.89 9.94 6.22 9.18 4.87 22.98-3.44 30.47-3.56 3.3-8.07 5.39-12.76 6.51 3.01 2.25 4.92 5.53 7.14 8.5 6.81 9.36 13.63 18.72 20.43 28.09-3.95-.07-7.91.18-11.85-.13-1.83-.07-3.09-1.53-4.05-2.91-6.77-9.52-13.58-19.01-20.38-28.5-3.03-4.79-9.48-2.38-14.13-2.95-.01 11.49 0 22.99 0 34.49-4.02 0-8.03.01-12.04-.01.01-27.87 0-55.74.01-83.61m12.03 9.47v30.84c8.03-.33 16.83 1.3 24.11-3.02 8.64-4.94 9.71-19.67.93-24.97-7.63-4.26-16.71-2.46-25.04-2.85Z" fill="#f2f2f2" data-color="5"/>
        <path d="M195.07 290.24c2.32-.68 4.79-.28 7.18-.36v19.96c5.6 0 11.21 0 16.81.01v8.09c-5.6 0-11.21-.01-16.81 0 .05 12-.09 24 .06 36-.02 3.06 2.48 5.92 5.62 5.94 3 .44 5.3-1.75 7.92-2.71 2.29 1.37 3.11 4.41 4.67 6.53-5.98 4.91-14.7 6.84-21.95 3.81-5.22-2.22-7.52-8.16-7.42-13.51-.07-12.02 0-24.04-.03-36.07-2.7-.05-5.45.25-8.12-.25-1.88-1.58-.77-4.48-1.08-6.61l9.62-1.29c.76-5.39 1.51-10.79 2.25-16.19.23-1.17.26-2.54 1.28-3.35Z" fill="#f2f2f2" data-color="5"/>
        <path d="M143.8 311.96c9.92-6.46 24.25-5.13 32.97 2.84-1.01 1.64-1.89 3.37-3.12 4.87-1.65 1.57-3.73-.15-5.36-.83-4.71-2.66-10.64-3.64-15.75-1.57-3.09 1.21-5.63 4.34-5.2 7.79.19 2.72 2.62 4.5 4.86 5.63 7.09 3.38 15.65 3.97 21.62 9.48 4.5 4.14 4.69 11.05 2.71 16.48-1.83 5.12-6.31 8.95-11.38 10.7-10.07 3.45-21.84 1.36-29.99-5.54 1.66-2.15 2.48-6.23 5.86-6 3.09 1.07 5.56 3.5 8.77 4.36 4.77 1.33 10.49 1.35 14.54-1.85 3.58-2.81 4.26-9.24.19-11.94-7.32-4.97-17.51-4.45-23.89-11.06-6.39-6.58-4.32-18.47 3.17-23.36Z" fill="#f2f2f2" data-color="5"/>
        <path d="M244.58 308.73c8.72-1.84 18.58-.71 25.69 5.02 6.68 5.32 9.82 13.99 10.14 22.32.49 8.97-1.68 18.67-8.21 25.21-11.95 11.6-35.03 9.99-43.87-4.67-5.32-8.96-5.79-20.27-2.9-30.12 2.57-8.83 10.1-15.93 19.15-17.76m2.63 8.41c-6.71 1.39-10.63 8.04-11.55 14.39-1.07 7.53-.94 15.9 3.33 22.48 4.25 6.42 13.33 7.44 20.09 4.94 6.43-2.5 9.16-9.73 9.72-16.11.57-7.19.16-15.2-4.46-21.11-3.99-5.07-11.2-5.94-17.13-4.59Z" fill="#f2f2f2" data-color="5"/>
        <path d="M301.84 316.75c4.49-5.28 10.95-9.7 18.23-8.76 6.68.11 11.62 5.75 13.41 11.78 4.65-12.02 21.57-15.4 31.48-8 5.5 4.28 7.3 11.61 7.25 18.28.02 12.66 0 25.32.01 37.98h-11.09c-.02-12.68.01-25.36-.01-38.05-.01-4.13-1.03-8.83-4.64-11.33-5.19-3.4-13.14-2.21-16.7 3.03-1.9 2.69-2.49 6.05-2.44 9.28.01 12.36.01 24.71 0 37.07h-11.09c-.04-12.97.06-25.94-.05-38.91.06-4.83-2.02-10.63-7.23-11.89-6.34-1.95-12.63 1.87-16.37 6.8.05 14.66.01 29.33.02 44h-11.09v-59.14c2.75.11 5.6-.39 8.29.33 2.15 1.77 1.37 5.09 2.02 7.53Z" fill="#f2f2f2" data-color="5"/>
        <path d="M390.23 315.22c7.9-7.62 20.57-9.35 30.48-4.93 10.03 4.41 14.68 16.3 13.34 26.69-.03 1.59-1.78 1.84-2.99 1.79-12.82.03-25.65-.01-38.48.02.34 5.93 1.57 12.31 5.92 16.7 5.05 5.03 13.08 5.53 19.61 3.58 3.54-.95 6.42-3.42 9.87-4.54 2.74.14 3.77 3.43 5.48 5.19-6.4 6.98-16.32 9.54-25.52 9.04-7.34-.36-14.7-3.54-19.38-9.33-5.34-6.5-7.16-15.2-6.9-23.45.18-7.63 2.98-15.41 8.57-20.76m10.86 2.84c-5.01 2.77-7.27 8.49-8.18 13.86 10.5.04 21.01.02 31.52.01-.23-4.08-1.14-8.35-4-11.43-4.81-5.26-13.28-5.63-19.34-2.44Z" fill="#f2f2f2" data-color="5"/>
        <path d="M463.63 309.63c4.28-2.39 9.54-2.23 14.04-.55-.19 3.24-.12 6.57-1.02 9.71-2.57 1.36-5.76-.59-8.59-.07-6.7.18-11.14 6.37-12.84 12.25-.24 12.35-.02 24.71-.1 37.06h-11.09v-59.15c2.87.16 5.93-.48 8.69.47 2.04 3.17 1.1 7.4 1.71 11 2.21-4.18 4.95-8.37 9.2-10.72Z" fill="#f2f2f2" data-color="5"/>
        <path d="M587.82 310.66c10.1-4.78 23.77-3.57 31.34 5.22 4.98 5.96 7.08 14.37 5.62 21.96-.28.2-.85.59-1.14.79-13.34.36-26.71.04-40.06.16.34 5.92 1.57 12.3 5.91 16.69 4.52 4.58 11.59 5.34 17.64 4.12 4-.75 7.39-3.1 11-4.83 3.21-1.1 4.49 3.12 6.33 4.95-6.38 6.97-16.29 9.53-25.47 9.04-7.59-.35-15.19-3.74-19.85-9.86-5.81-7.55-7.28-17.63-6.13-26.89 1.13-8.93 6.51-17.5 14.81-21.35m4.24 7.42c-4.99 2.78-7.24 8.48-8.15 13.84 10.5.04 21.01.02 31.52.01-.22-4.28-1.27-8.8-4.44-11.89-4.92-4.83-13.04-5.07-18.93-1.96Z" fill="#f2f2f2" data-color="5"/>
        <path d="M722.24 316.23c8.12-8.81 22.35-10.77 32.84-5.26 9.17 4.87 13.21 16.13 11.96 26.04-.04 1.54-1.75 1.82-2.93 1.76-12.84.04-25.69-.01-38.53.01.34 5.96 1.58 12.37 5.97 16.76 5.05 4.98 13.05 5.48 19.56 3.53 3.57-.93 6.44-3.48 9.94-4.54 2.68.2 3.71 3.45 5.41 5.19-6.39 6.96-16.28 9.53-25.46 9.04-7.36-.34-14.73-3.52-19.42-9.31-5.13-6.22-7.02-14.5-6.94-22.42-.02-7.52 2.41-15.24 7.6-20.8m11.81 1.86c-4.98 2.78-7.23 8.47-8.14 13.83 10.5.03 21.01.02 31.52.01-.23-4.07-1.14-8.34-3.98-11.42-4.83-5.27-13.34-5.65-19.4-2.42Z" fill="#f2f2f2" data-color="5"/>
        <path d="M870.88 311.57c9.92-5.97 23.85-4.62 32.39 3.25-1.55 1.89-2.24 5.73-5.27 5.46-4.21-1.77-8.27-4.41-13.04-4.11-4.45-.15-9.84 1.9-10.98 6.65-.94 3.08 1.12 6.02 3.79 7.36 7.15 3.84 16.02 4.2 22.29 9.74 5.32 4.71 5.08 13.08 1.95 18.96-3.64 6.78-11.63 9.91-19 10.04-7.71.46-15.43-2.19-21.34-7.12 1.67-2.26 2.69-6.71 6.33-5.88 3.05 1.43 5.73 3.71 9.1 4.48 4.43 1.01 9.58.97 13.4-1.82 3.94-2.75 4.71-9.66.31-12.36-7.24-4.71-17.04-4.38-23.42-10.62-6.87-6.71-4.56-19.28 3.49-24.03Z" fill="#f2f2f2" data-color="5"/>
        <path d="M75.94 308.63c3.7-.01 7.39-.01 11.09 0 .03 12.8-.05 25.6.04 38.4-.07 4.98 2.24 10.77 7.46 12.21 7.43 2.29 15.01-1.63 19.95-7.04.04-14.53.01-29.05.02-43.58h11.09c.02 19.72 0 39.43.01 59.15-2.74-.1-5.58.36-8.25-.34-2.22-1.82-1.46-5.24-2.32-7.76-3.88 3.81-8.41 7.34-13.85 8.47-6.27 1.28-13.46.53-18.43-3.84-4.9-4.27-6.72-11.02-6.79-17.31-.05-12.79-.01-25.58-.02-38.36Z" fill="#f2f2f2" data-color="5"/>
        <path d="M627.65 308.63c3.42.06 6.87-.19 10.29.13 1.6.33 2.09 2.02 2.66 3.32 4.41 11.36 8.87 22.69 13.32 34.02 1.31 3.29 2.09 6.75 2.86 10.2 1.39-7.15 4.5-13.76 7.1-20.51 3.09-7.83 6.23-15.64 9.29-23.48.62-1.4 1.09-3.31 2.89-3.57 3.2-.28 6.42-.06 9.64-.11-8 19.72-16.01 39.42-24 59.14-3.36.01-6.71.01-10.06 0-7.98-19.72-16-39.42-23.99-59.14Z" fill="#f2f2f2" data-color="5"/>
        <path d="M693.06 308.88c3.7-.01 7.39-.01 11.09 0 .01 19.72.01 39.43.01 59.15h-11.1v-59.15Z" fill="#f2f2f2" data-color="5"/>
        <path d="M770.73 308.88c3.73.46 8.17-1.11 11.44 1.05 2.21 5.04 3.23 10.57 4.98 15.8 2.8 10.14 6.45 20.07 8.28 30.45 3.9-14.57 9.12-28.74 13.54-43.15.61-1.59.93-4.04 3.05-4.23 2.3-.24 4.66-.28 6.95.13 1.97.95 2.03 3.44 2.79 5.24 4.2 14.03 9.36 27.79 12.88 42.02 2.85-14.14 7.97-27.71 11.79-41.6.78-2 .85-5.21 3.51-5.61 3.03-.26 6.08-.06 9.13-.09-6.37 19.71-12.74 39.42-19.12 59.13-3.29-.09-6.62.31-9.86-.26-1.22-1.26-1.45-3.12-2.05-4.69-4.29-13.83-9.2-27.48-13.14-41.41-3.74 14.17-9.05 27.89-13.39 41.88-.68 1.49-.75 3.67-2.49 4.36-3.06.29-6.13.09-9.18.12-6.37-19.71-12.74-39.42-19.11-59.14Z" fill="#f2f2f2" data-color="5"/>
        <path d="M219.55 427.68c14.41-2.77 30.24.61 41.47 10.29 9.63 8.19 15.61 19.83 19.25 31.77 4.86 15.88 5.63 32.7 4.91 49.2-.88 17.42-4.6 35.24-14.15 50.09-6.7 10.45-17.26 18.51-29.46 21.26-16.69 4.07-35.7-.59-47.43-13.46-13.63-14.73-18.6-35.29-20.01-54.81-1.36-23.16.12-47.61 11.34-68.43 6.91-13.02 19.36-23.34 34.08-25.91m2.89 17.99c-11.99 2.68-19.33 14.01-22.72 25.05-4.16 12.63-5.02 26.05-5.02 39.26.07 13.17 1.07 26.56 5.43 39.09 2.37 6.83 5.95 13.48 11.5 18.25 8.02 6.78 19.99 8.21 29.49 3.84 7.2-3.09 12.21-9.67 15.44-16.6 5.91-12.98 7.47-27.42 7.72-41.53.18-14.18-.54-28.63-5.03-42.2-2.45-7.45-6.16-14.8-12.25-19.92-6.73-5.52-16.17-7.41-24.56-5.24Z" fill="#e97100" data-color="6"/>
        <path d="M8.56 504.99c4.42-25.77 8.83-51.54 13.29-77.3 26.15 0 52.3-.01 78.44 0-.2 4.8.79 9.89-1.06 14.46-1.87 4.32-6.91 5.62-11.21 5.58-17.01.06-34.03-.01-51.04.03-2.41 13.82-4.81 27.65-7.19 41.47 9.25-1.92 18.72-3.17 28.18-2.53 13.44.71 27.1 5.98 36.04 16.32 9.23 10.55 12.4 25.21 11.21 38.92-1.07 15.52-8.77 30.66-21.31 40-12.16 9.19-27.88 12.81-42.94 11.72-15.1-.98-29.56-7.41-40.97-17.25V576c2.35-3.33 4.57-6.76 7.13-9.93 1.94-2.56 5.72-2.99 8.47-1.55 3.97 1.9 7.56 4.51 11.62 6.25 11.73 5.53 26.09 6.14 37.86.42 9.69-4.69 16.04-14.62 17.72-25.08 1.68-10.02.83-21.21-5.45-29.58-4.95-6.75-13.14-10.32-21.26-11.37-11.28-1.58-22.62.64-33.48 3.59-4.82-.48-9.35-2.64-14.05-3.76Z" fill="#e97100" data-color="6"/>
        <path d="M444.25 439.45c6.85 15.62 13.25 31.43 19.98 47.11 16.88 1.39 33.75 2.93 50.64 4.27-12.51 11.58-25.69 22.45-38.42 33.8 3.89 16.67 7.75 33.35 11.61 50.04-14.56-8.85-29.15-17.65-43.68-26.55-14.66 8.76-29.2 17.73-43.83 26.54 3.77-16.76 7.93-33.44 11.5-50.24-12.86-10.98-25.5-22.23-38.32-33.28 16.82-2.07 33.8-2.96 50.68-4.6 6.61-15.7 13.21-31.4 19.84-47.09Z" fill="#e97100" data-color="6"/>
        <path d="M594.27 486.53c6.71-15.63 12.96-31.46 19.98-46.94 6.7 15.65 13.14 31.4 19.92 47.01 16.93 1.35 33.86 2.87 50.79 4.3-12.87 11.26-25.79 22.45-38.65 33.71 3.87 16.69 7.75 33.37 11.61 50.07-14.63-8.84-29.18-17.8-43.85-26.57-14.52 8.92-29.11 17.71-43.67 26.56 3.81-16.74 7.85-33.43 11.56-50.19-12.81-11.15-25.8-22.13-38.33-33.58 16.87-1.53 33.76-2.87 50.64-4.37Z" fill="#e97100" data-color="6"/>
        <path d="M764.21 486.46c6.51-15.72 13.14-31.39 19.8-47.04 6.66 15.65 13.3 31.31 19.8 47.03 16.98 1.65 34.01 2.93 51.01 4.45-12.87 11.21-25.7 22.47-38.62 33.62 3.76 16.74 7.74 33.42 11.57 50.15-14.59-8.84-29.17-17.71-43.76-26.56-14.59 8.84-29.16 17.72-43.75 26.56 3.82-16.72 7.79-33.4 11.58-50.13-12.91-11.18-25.76-22.42-38.63-33.64 17-1.52 34.01-2.8 51-4.44Z" fill="#e97100" data-color="6"/>
        <path d="M953.69 439.73c3.89 7.27 6.52 15.17 9.92 22.69 3.36 8.03 6.79 16.04 10.12 24.08 16.9 1.66 33.87 2.67 50.75 4.56-12.8 11.16-25.55 22.36-38.42 33.43 3.73 16.76 7.75 33.44 11.56 50.18-14.57-8.85-29.15-17.67-43.7-26.56-14.63 8.8-29.19 17.72-43.8 26.56 3.84-16.69 7.72-33.37 11.6-50.05-12.86-11.26-25.78-22.46-38.65-33.72 16.93-1.44 33.86-2.94 50.81-4.31 6.72-15.56 13.18-31.25 19.81-46.86Z" fill="#e97100" data-color="6"/>
        <path d="M1123.68 439.46c6.83 15.61 13.27 31.39 19.94 47.07 16.79 1.46 33.58 2.88 50.38 4.31v.66c-12.81 10.84-25.28 22.08-38.06 32.96 3.66 16.77 7.74 33.45 11.53 50.2-14.57-8.83-29.15-17.67-43.69-26.54-14.64 8.79-29.2 17.72-43.81 26.55 3.85-16.69 7.73-33.37 11.6-50.05-12.85-11.27-25.78-22.45-38.63-33.71 16.94-1.47 33.88-2.94 50.82-4.33 6.72-15.67 13.24-31.44 19.92-47.12Z" fill="#e97100" data-color="6"/>
        <path d="M138.41 561.55c9-2.4 19.27 4.1 20.07 13.56 1.59 9.16-6.11 18.51-15.44 18.49-8.74.72-17.14-6.82-17.2-15.62-.56-7.62 5.17-14.87 12.57-16.43Z" fill="#e97100" data-color="6"/>
    </g>
</svg>
