<?xml version="1.0" encoding="UTF-8"?>
<svg data-bbox="0 0 512 512" viewBox="0 0 512 512" xmlns="http://www.w3.org/2000/svg" data-type="shape">
    <g>
        <path d="M423.91 395.779v-14.707c41.298-26.192 66.735-72.114 66.735-121.195v-14.561c0-6.812-5.542-12.354-12.353-12.354h-25.286a242.718 242.718 0 0 1 20.564-23.42l30.548-30.549C509.2 173.909 512 167.15 512 159.962c0-7.19-2.8-13.949-7.883-19.033l-6.863-6.863c-10.494-10.493-27.569-10.491-38.063 0l-30.548 30.549a242.965 242.965 0 0 1-36.947 30.292 257.917 257.917 0 0 0-39.235 32.165l-5.891 5.892H206.495c-6.812 0-12.353 5.542-12.353 12.354v14.561c0 14.246 2.072 28.23 6.161 41.693a32.138 32.138 0 0 0-13.612 6.222l-16.228 12.701V178.697c8.483-3.077 14.56-11.215 14.56-20.747V79.31c0-12.108 2.416-23.925 7.181-35.124a31.572 31.572 0 0 0 2.526-12.43c0-12.164-6.774-23.078-17.68-28.48-11.453-5.674-25.064-3.904-36.409 4.735a7.486 7.486 0 0 0-1.422 1.423c-8.16 10.716-10.222 23.244-5.657 34.371 4.871 11.872 7.34 23.568 7.34 34.761v79.385c0 9.532 6.078 17.67 14.56 20.747v153.535l-36.547 28.603-41.834-156.133a21.97 21.97 0 0 0 6.495-7.053 21.92 21.92 0 0 0 2.204-16.741l-20.353-75.961c-3.134-11.696-3.859-23.736-2.155-35.786.6-4.239.338-8.498-.777-12.659-3.148-11.749-12.516-20.538-24.448-22.933-12.535-2.515-25.222 2.716-33.943 13.997a7.523 7.523 0 0 0-1.006 1.742C-2.01 61.771-.759 74.406 6.531 83.974c7.776 10.205 13.188 20.863 16.085 31.676l20.546 76.68c2.467 9.207 10.444 15.493 19.433 16.269l43.483 162.283-28.405 22.23c-3.096-2.986-7.298-4.834-11.929-4.834-36.25 0-65.742 29.493-65.742 65.744 0 9.488 7.719 17.207 17.207 17.207 20.458 0 38.76-9.396 50.826-24.095 5.495 5.339 12.774 8.584 20.649 9.006a17.19 17.19 0 0 0 3.721 5.541c12.417 12.417 28.926 19.255 46.486 19.255s34.07-6.838 46.487-19.255a17.201 17.201 0 0 0 3.692-5.481h133.557c17.753 0 32.195-14.443 32.195-32.196 0-.439-.02-.875-.037-1.312h42.211c14.84.001 26.914-12.072 26.914-26.913zM66.3 193.441c-3.762 1.004-7.641-1.234-8.649-4.994l-20.546-76.68C33.7 99.06 27.428 86.649 18.462 74.883c-3.869-5.079-4.516-11.772-1.855-18.935 5.154-6.215 11.845-9.005 18.487-7.672 6.302 1.266 11.25 5.905 12.913 12.11.589 2.2.729 4.446.414 6.675-1.988 14.061-1.141 28.115 2.518 41.771l20.353 75.961c1.008 3.761-1.232 7.64-4.992 8.648zM17.209 456.229a2.21 2.21 0 0 1-2.207-2.207c0-27.98 22.763-50.743 50.742-50.743a2.21 2.21 0 0 1 2.207 2.207c0 27.98-22.763 50.743-50.742 50.743zm382.807-248.844a258.038 258.038 0 0 0 39.234-32.164l30.548-30.549c4.645-4.647 12.205-4.645 16.849 0l6.863 6.863c4.646 4.645 4.646 12.204 0 16.849l-30.548 30.549a258.174 258.174 0 0 0-28.579 34.028h-66.454a243.197 243.197 0 0 1 32.087-25.576zM147.439 38.112c-2.422-5.906-1.315-12.537 3.109-18.769 6.587-4.669 13.77-5.632 19.843-2.625 5.76 2.854 9.338 8.616 9.338 15.038a16.65 16.65 0 0 1-1.328 6.555v.001c-5.56 13.067-8.378 26.86-8.378 40.998v78.641a7.068 7.068 0 0 1-7.061 7.061 7.068 7.068 0 0 1-7.061-7.061V78.566c0-13.155-2.847-26.765-8.462-40.454zm27.332 412.962c-9.584 9.584-22.327 14.863-35.88 14.863-13.554 0-26.296-5.278-35.88-14.863a2.208 2.208 0 0 1 0-3.121c9.892-9.893 22.885-14.838 35.879-14.838 12.994 0 25.989 4.946 35.881 14.839.534.534.646 1.143.646 1.56a2.158 2.158 0 0 1-.646 1.56zm147.856-9.873H188.274a17.296 17.296 0 0 0-2.896-3.856c-25.634-25.631-67.341-25.632-92.972.001a17.253 17.253 0 0 0-2.878 3.823 17.105 17.105 0 0 1-13.086-7.174c3.814-7.893 6.082-16.663 6.443-25.913l113.05-88.477a17.166 17.166 0 0 1 21.195 0l21.841 17.093a7.496 7.496 0 0 0 10.528-1.284 7.5 7.5 0 0 0-1.284-10.529l-21.841-17.093a32.22 32.22 0 0 0-9.989-5.292c-4.806-13.659-7.244-27.984-7.244-42.624v-11.914h266.503v11.914c0 44.234-23.071 85.611-60.482 108.987H304.408l-33.98-26.593a7.496 7.496 0 0 0-10.528 1.284 7.5 7.5 0 0 0 1.284 10.529l72.04 56.38a17.093 17.093 0 0 1 6.598 13.541c0 9.482-7.714 17.197-17.195 17.197zm27.767-33.508a32.258 32.258 0 0 0-7.926-9.042l-18.893-14.786h85.335v11.914c0 6.569-5.345 11.914-11.914 11.914h-46.602z"/>
        <path d="M413.988 468.409c-3.25 3.249-5.041 7.57-5.041 12.167s1.79 8.917 5.04 12.168C426.405 505.162 442.913 512 460.474 512c17.56 0 34.069-6.838 46.487-19.255v-.001c6.707-6.709 6.707-17.625-.001-24.336-25.633-25.631-67.34-25.632-92.972.001zm82.366 13.728c-19.783 19.786-51.976 19.786-71.759 0a2.21 2.21 0 0 1-.001-3.121c9.893-9.893 22.887-14.838 35.88-14.838 12.994 0 25.989 4.946 35.881 14.839a2.21 2.21 0 0 1-.001 3.12z"/>
    </g>
</svg>
