<?xml version="1.0" encoding="UTF-8"?>
<svg data-bbox="0 0 512.004 512" xmlns="http://www.w3.org/2000/svg" width="512pt" viewBox="0 0 512.002 512" height="512pt" data-type="shape">
    <g>
        <path d="M367.398 256c0-61.426-49.972-111.398-111.398-111.398S144.602 194.574 144.602 256 194.574 367.398 256 367.398 367.398 317.426 367.398 256zm-192.796 0c0-44.883 36.515-81.398 81.398-81.398.57 0 1.137.03 1.707.043 17.516.89 31.492 15.421 31.492 33.156C289.2 226.109 274.305 241 256 241c-34.848 0-63.2 28.352-63.2 63.2 0 1.05.028 2.09.079 3.124-11.418-14.012-18.277-31.879-18.277-51.324zM256 337.398c-.57 0-1.137-.03-1.707-.043-17.516-.89-31.492-15.421-31.492-33.156C222.8 285.895 237.695 271 256 271c34.848 0 63.2-28.352 63.2-63.2 0-1.046-.028-2.09-.079-3.124 11.418 14.015 18.277 31.883 18.277 51.324 0 44.887-36.515 81.398-81.398 81.398zm0 0"/>
        <path d="M271 304.2c0 8.284-6.715 15-15 15s-15-6.716-15-15c0-8.282 6.715-15 15-15s15 6.718 15 15zm0 0"/>
        <path d="M271 207.8c0 8.286-6.715 15-15 15s-15-6.714-15-15c0-8.284 6.715-15 15-15s15 6.716 15 15zm0 0"/>
        <path d="M507.605 148.996L363.008 4.395A15.012 15.012 0 0 0 352.398 0H159.602c-3.98 0-7.797 1.582-10.61 4.395L4.395 148.996A14.996 14.996 0 0 0 0 159.602v192.8c0 3.977 1.582 7.793 4.395 10.606l144.597 144.597a14.995 14.995 0 0 0 10.61 4.395h192.8c3.977 0 7.793-1.578 10.606-4.395l144.601-144.597a15.003 15.003 0 0 0 4.395-10.606v-192.8a15.016 15.016 0 0 0-4.399-10.606zM482 346.187L346.187 482H165.813L30 346.187V165.813L165.813 30.005h180.375L482 165.813zm0 0"/>
        <path d="M207.8 78.203h96.4c8.284 0 15-6.719 15-15 0-8.285-6.716-15-15-15h-96.4c-8.284 0-15 6.715-15 15 0 8.281 6.716 15 15 15zm0 0"/>
        <path d="M288.133 126.402c8.285 0 15-6.718 15-15 0-8.285-6.715-15-15-15h-64.266c-8.285 0-15 6.715-15 15 0 8.282 6.715 15 15 15zm0 0"/>
        <path d="M304.2 433.8h-96.4c-8.284 0-15 6.716-15 15 0 8.286 6.716 15 15 15h96.4c8.284 0 15-6.714 15-15 0-8.284-6.716-15-15-15zm0 0"/>
        <path d="M223.867 385.602c-8.285 0-15 6.714-15 15 0 8.285 6.715 15 15 15h64.266c8.285 0 15-6.715 15-15 0-8.286-6.715-15-15-15zm0 0"/>
        <path d="M347.64 96.195l68.165 68.164c5.86 5.86 15.355 5.856 21.215 0 5.855-5.855 5.855-15.355 0-21.214l-68.165-68.16c-5.859-5.856-15.355-5.856-21.214 0-5.856 5.859-5.856 15.355 0 21.21zm0 0"/>
        <path d="M370.36 187.086c5.859 5.86 15.355 5.855 21.214 0 5.856-5.856 5.856-15.356 0-21.215L346.13 120.43c-5.86-5.86-15.356-5.86-21.215 0-5.855 5.855-5.855 15.355 0 21.21zm0 0"/>
        <path d="M96.195 347.645c-5.855-5.86-15.355-5.86-21.215 0-5.855 5.855-5.855 15.351 0 21.21l68.165 68.165c5.859 5.859 15.355 5.855 21.214 0 5.856-5.86 5.856-15.356 0-21.215zm0 0"/>
        <path d="M141.633 324.914c-5.86-5.855-15.356-5.855-21.215 0-5.856 5.86-5.856 15.356 0 21.215l45.445 45.445c5.86 5.86 15.356 5.856 21.215 0 5.856-5.86 5.856-15.355 0-21.215zm0 0"/>
        <path d="M433.8 207.8v96.4c0 8.284 6.716 15 15 15 8.286 0 15-6.716 15-15v-96.4c0-8.284-6.714-15-15-15-8.284 0-15 6.716-15 15zm0 0"/>
        <path d="M385.602 223.867v64.266c0 8.285 6.714 15 15 15 8.28 0 15-6.715 15-15v-64.266c0-8.281-6.72-15-15-15-8.286 0-15 6.719-15 15zm0 0"/>
        <path d="M78.2 304.2v-96.4c0-8.284-6.716-15-15-15-8.286 0-15 6.716-15 15v96.4c0 8.284 6.714 15 15 15 8.284 0 15-6.716 15-15zm0 0"/>
        <path d="M96.398 223.867v64.266c0 8.285 6.72 15 15 15 8.286 0 15-6.715 15-15v-64.266c0-8.281-6.714-15-15-15-8.28 0-15 6.719-15 15zm0 0"/>
        <path d="M415.805 347.645l-68.164 68.16c-5.856 5.855-5.856 15.355 0 21.215 2.93 2.93 6.77 4.39 10.609 4.39 3.836 0 7.676-1.465 10.605-4.39l68.165-68.165c5.859-5.855 5.859-15.355 0-21.21-5.86-5.86-15.36-5.86-21.215 0zm0 0"/>
        <path d="M391.574 346.129c5.856-5.856 5.856-15.356 0-21.215-5.86-5.855-15.355-5.855-21.215 0l-45.445 45.445c-5.855 5.86-5.855 15.356 0 21.215 5.86 5.86 15.356 5.856 21.215 0zm0 0"/>
        <path d="M96.195 164.36l68.164-68.165c5.856-5.855 5.856-15.351 0-21.21-5.859-5.86-15.355-5.86-21.214 0l-68.165 68.16c-5.855 5.859-5.855 15.355 0 21.214 5.86 5.86 15.36 5.86 21.215 0zm0 0"/>
        <path d="M120.418 165.871c-5.856 5.86-5.856 15.356 0 21.215 5.86 5.86 15.355 5.855 21.215 0l45.445-45.445c5.856-5.856 5.856-15.356 0-21.211-5.86-5.86-15.355-5.86-21.215 0zm0 0"/>
    </g>
</svg>
